<?xml version="1.0" encoding="utf-8" standalone="no"?>
<!DOCTYPE svg PUBLIC "-//W3C//DTD SVG 1.1//EN"
  "http://www.w3.org/Graphics/SVG/1.1/DTD/svg11.dtd">
<svg xmlns:xlink="http://www.w3.org/1999/xlink" width="424.031875pt" height="207.369281pt" viewBox="0 0 424.031875 207.369281" xmlns="http://www.w3.org/2000/svg" version="1.1">
 <metadata>
  <rdf:RDF xmlns:dc="http://purl.org/dc/elements/1.1/" xmlns:cc="http://creativecommons.org/ns#" xmlns:rdf="http://www.w3.org/1999/02/22-rdf-syntax-ns#">
   <cc:Work>
    <dc:type rdf:resource="http://purl.org/dc/dcmitype/StillImage"/>
    <dc:date>2024-02-25T20:30:37.119540</dc:date>
    <dc:format>image/svg+xml</dc:format>
    <dc:creator>
     <cc:Agent>
      <dc:title>Matplotlib v3.7.2, https://matplotlib.org/</dc:title>
     </cc:Agent>
    </dc:creator>
   </cc:Work>
  </rdf:RDF>
 </metadata>
 <defs>
  <style type="text/css">*{stroke-linejoin: round; stroke-linecap: butt}</style>
 </defs>
 <g id="figure_1">
  <g id="patch_1">
   <path d="M 0 207.369281 
L 424.031875 207.369281 
L 424.031875 0 
L 0 0 
z
" style="fill: #ffffff"/>
  </g>
  <g id="axes_1">
   <g id="patch_2">
    <path d="M 43.78125 158.615219 
L 389.79125 158.615219 
L 389.79125 10.999219 
L 43.78125 10.999219 
z
" style="fill: #ffffff"/>
   </g>
   <g id="matplotlib.axis_1">
    <g id="xtick_1">
     <g id="line2d_1">
      <defs>
       <path id="m8673ca7a3e" d="M 0 0 
L 0 3.5 
" style="stroke: #000000; stroke-width: 0.8"/>
      </defs>
      <g>
       <use xlink:href="#m8673ca7a3e" x="57.094088" y="158.615219" style="stroke: #000000; stroke-width: 0.8"/>
      </g>
     </g>
     <g id="text_1">
      <!-- 0 -->
      <g transform="translate(53.912838 173.213656) scale(0.1 -0.1)">
       <defs>
        <path id="DejaVuSans-30" d="M 2034 4250 
Q 1547 4250 1301 3770 
Q 1056 3291 1056 2328 
Q 1056 1369 1301 889 
Q 1547 409 2034 409 
Q 2525 409 2770 889 
Q 3016 1369 3016 2328 
Q 3016 3291 2770 3770 
Q 2525 4250 2034 4250 
z
M 2034 4750 
Q 2819 4750 3233 4129 
Q 3647 3509 3647 2328 
Q 3647 1150 3233 529 
Q 2819 -91 2034 -91 
Q 1250 -91 836 529 
Q 422 1150 422 2328 
Q 422 3509 836 4129 
Q 1250 4750 2034 4750 
z
" transform="scale(0.015625)"/>
       </defs>
       <use xlink:href="#DejaVuSans-30"/>
      </g>
     </g>
    </g>
    <g id="xtick_2">
     <g id="line2d_2">
      <g>
       <use xlink:href="#m8673ca7a3e" x="97.5445" y="158.615219" style="stroke: #000000; stroke-width: 0.8"/>
      </g>
     </g>
     <g id="text_2">
      <!-- 10 -->
      <g transform="translate(91.182 173.213656) scale(0.1 -0.1)">
       <defs>
        <path id="DejaVuSans-31" d="M 794 531 
L 1825 531 
L 1825 4091 
L 703 3866 
L 703 4441 
L 1819 4666 
L 2450 4666 
L 2450 531 
L 3481 531 
L 3481 0 
L 794 0 
L 794 531 
z
" transform="scale(0.015625)"/>
       </defs>
       <use xlink:href="#DejaVuSans-31"/>
       <use xlink:href="#DejaVuSans-30" x="63.623047"/>
      </g>
     </g>
    </g>
    <g id="xtick_3">
     <g id="line2d_3">
      <g>
       <use xlink:href="#m8673ca7a3e" x="137.994913" y="158.615219" style="stroke: #000000; stroke-width: 0.8"/>
      </g>
     </g>
     <g id="text_3">
      <!-- 20 -->
      <g transform="translate(131.632413 173.213656) scale(0.1 -0.1)">
       <defs>
        <path id="DejaVuSans-32" d="M 1228 531 
L 3431 531 
L 3431 0 
L 469 0 
L 469 531 
Q 828 903 1448 1529 
Q 2069 2156 2228 2338 
Q 2531 2678 2651 2914 
Q 2772 3150 2772 3378 
Q 2772 3750 2511 3984 
Q 2250 4219 1831 4219 
Q 1534 4219 1204 4116 
Q 875 4013 500 3803 
L 500 4441 
Q 881 4594 1212 4672 
Q 1544 4750 1819 4750 
Q 2544 4750 2975 4387 
Q 3406 4025 3406 3419 
Q 3406 3131 3298 2873 
Q 3191 2616 2906 2266 
Q 2828 2175 2409 1742 
Q 1991 1309 1228 531 
z
" transform="scale(0.015625)"/>
       </defs>
       <use xlink:href="#DejaVuSans-32"/>
       <use xlink:href="#DejaVuSans-30" x="63.623047"/>
      </g>
     </g>
    </g>
    <g id="xtick_4">
     <g id="line2d_4">
      <g>
       <use xlink:href="#m8673ca7a3e" x="178.445326" y="158.615219" style="stroke: #000000; stroke-width: 0.8"/>
      </g>
     </g>
     <g id="text_4">
      <!-- 30 -->
      <g transform="translate(172.082826 173.213656) scale(0.1 -0.1)">
       <defs>
        <path id="DejaVuSans-33" d="M 2597 2516 
Q 3050 2419 3304 2112 
Q 3559 1806 3559 1356 
Q 3559 666 3084 287 
Q 2609 -91 1734 -91 
Q 1441 -91 1130 -33 
Q 819 25 488 141 
L 488 750 
Q 750 597 1062 519 
Q 1375 441 1716 441 
Q 2309 441 2620 675 
Q 2931 909 2931 1356 
Q 2931 1769 2642 2001 
Q 2353 2234 1838 2234 
L 1294 2234 
L 1294 2753 
L 1863 2753 
Q 2328 2753 2575 2939 
Q 2822 3125 2822 3475 
Q 2822 3834 2567 4026 
Q 2313 4219 1838 4219 
Q 1578 4219 1281 4162 
Q 984 4106 628 3988 
L 628 4550 
Q 988 4650 1302 4700 
Q 1616 4750 1894 4750 
Q 2613 4750 3031 4423 
Q 3450 4097 3450 3541 
Q 3450 3153 3228 2886 
Q 3006 2619 2597 2516 
z
" transform="scale(0.015625)"/>
       </defs>
       <use xlink:href="#DejaVuSans-33"/>
       <use xlink:href="#DejaVuSans-30" x="63.623047"/>
      </g>
     </g>
    </g>
    <g id="xtick_5">
     <g id="line2d_5">
      <g>
       <use xlink:href="#m8673ca7a3e" x="218.895739" y="158.615219" style="stroke: #000000; stroke-width: 0.8"/>
      </g>
     </g>
     <g id="text_5">
      <!-- 40 -->
      <g transform="translate(212.533239 173.213656) scale(0.1 -0.1)">
       <defs>
        <path id="DejaVuSans-34" d="M 2419 4116 
L 825 1625 
L 2419 1625 
L 2419 4116 
z
M 2253 4666 
L 3047 4666 
L 3047 1625 
L 3713 1625 
L 3713 1100 
L 3047 1100 
L 3047 0 
L 2419 0 
L 2419 1100 
L 313 1100 
L 313 1709 
L 2253 4666 
z
" transform="scale(0.015625)"/>
       </defs>
       <use xlink:href="#DejaVuSans-34"/>
       <use xlink:href="#DejaVuSans-30" x="63.623047"/>
      </g>
     </g>
    </g>
    <g id="xtick_6">
     <g id="line2d_6">
      <g>
       <use xlink:href="#m8673ca7a3e" x="259.346152" y="158.615219" style="stroke: #000000; stroke-width: 0.8"/>
      </g>
     </g>
     <g id="text_6">
      <!-- 50 -->
      <g transform="translate(252.983652 173.213656) scale(0.1 -0.1)">
       <defs>
        <path id="DejaVuSans-35" d="M 691 4666 
L 3169 4666 
L 3169 4134 
L 1269 4134 
L 1269 2991 
Q 1406 3038 1543 3061 
Q 1681 3084 1819 3084 
Q 2600 3084 3056 2656 
Q 3513 2228 3513 1497 
Q 3513 744 3044 326 
Q 2575 -91 1722 -91 
Q 1428 -91 1123 -41 
Q 819 9 494 109 
L 494 744 
Q 775 591 1075 516 
Q 1375 441 1709 441 
Q 2250 441 2565 725 
Q 2881 1009 2881 1497 
Q 2881 1984 2565 2268 
Q 2250 2553 1709 2553 
Q 1456 2553 1204 2497 
Q 953 2441 691 2322 
L 691 4666 
z
" transform="scale(0.015625)"/>
       </defs>
       <use xlink:href="#DejaVuSans-35"/>
       <use xlink:href="#DejaVuSans-30" x="63.623047"/>
      </g>
     </g>
    </g>
    <g id="xtick_7">
     <g id="line2d_7">
      <g>
       <use xlink:href="#m8673ca7a3e" x="299.796565" y="158.615219" style="stroke: #000000; stroke-width: 0.8"/>
      </g>
     </g>
     <g id="text_7">
      <!-- 60 -->
      <g transform="translate(293.434065 173.213656) scale(0.1 -0.1)">
       <defs>
        <path id="DejaVuSans-36" d="M 2113 2584 
Q 1688 2584 1439 2293 
Q 1191 2003 1191 1497 
Q 1191 994 1439 701 
Q 1688 409 2113 409 
Q 2538 409 2786 701 
Q 3034 994 3034 1497 
Q 3034 2003 2786 2293 
Q 2538 2584 2113 2584 
z
M 3366 4563 
L 3366 3988 
Q 3128 4100 2886 4159 
Q 2644 4219 2406 4219 
Q 1781 4219 1451 3797 
Q 1122 3375 1075 2522 
Q 1259 2794 1537 2939 
Q 1816 3084 2150 3084 
Q 2853 3084 3261 2657 
Q 3669 2231 3669 1497 
Q 3669 778 3244 343 
Q 2819 -91 2113 -91 
Q 1303 -91 875 529 
Q 447 1150 447 2328 
Q 447 3434 972 4092 
Q 1497 4750 2381 4750 
Q 2619 4750 2861 4703 
Q 3103 4656 3366 4563 
z
" transform="scale(0.015625)"/>
       </defs>
       <use xlink:href="#DejaVuSans-36"/>
       <use xlink:href="#DejaVuSans-30" x="63.623047"/>
      </g>
     </g>
    </g>
    <g id="xtick_8">
     <g id="line2d_8">
      <g>
       <use xlink:href="#m8673ca7a3e" x="340.246978" y="158.615219" style="stroke: #000000; stroke-width: 0.8"/>
      </g>
     </g>
     <g id="text_8">
      <!-- 70 -->
      <g transform="translate(333.884478 173.213656) scale(0.1 -0.1)">
       <defs>
        <path id="DejaVuSans-37" d="M 525 4666 
L 3525 4666 
L 3525 4397 
L 1831 0 
L 1172 0 
L 2766 4134 
L 525 4134 
L 525 4666 
z
" transform="scale(0.015625)"/>
       </defs>
       <use xlink:href="#DejaVuSans-37"/>
       <use xlink:href="#DejaVuSans-30" x="63.623047"/>
      </g>
     </g>
    </g>
    <g id="xtick_9">
     <g id="line2d_9">
      <g>
       <use xlink:href="#m8673ca7a3e" x="380.69739" y="158.615219" style="stroke: #000000; stroke-width: 0.8"/>
      </g>
     </g>
     <g id="text_9">
      <!-- 80 -->
      <g transform="translate(374.33489 173.213656) scale(0.1 -0.1)">
       <defs>
        <path id="DejaVuSans-38" d="M 2034 2216 
Q 1584 2216 1326 1975 
Q 1069 1734 1069 1313 
Q 1069 891 1326 650 
Q 1584 409 2034 409 
Q 2484 409 2743 651 
Q 3003 894 3003 1313 
Q 3003 1734 2745 1975 
Q 2488 2216 2034 2216 
z
M 1403 2484 
Q 997 2584 770 2862 
Q 544 3141 544 3541 
Q 544 4100 942 4425 
Q 1341 4750 2034 4750 
Q 2731 4750 3128 4425 
Q 3525 4100 3525 3541 
Q 3525 3141 3298 2862 
Q 3072 2584 2669 2484 
Q 3125 2378 3379 2068 
Q 3634 1759 3634 1313 
Q 3634 634 3220 271 
Q 2806 -91 2034 -91 
Q 1263 -91 848 271 
Q 434 634 434 1313 
Q 434 1759 690 2068 
Q 947 2378 1403 2484 
z
M 1172 3481 
Q 1172 3119 1398 2916 
Q 1625 2713 2034 2713 
Q 2441 2713 2670 2916 
Q 2900 3119 2900 3481 
Q 2900 3844 2670 4047 
Q 2441 4250 2034 4250 
Q 1625 4250 1398 4047 
Q 1172 3844 1172 3481 
z
" transform="scale(0.015625)"/>
       </defs>
       <use xlink:href="#DejaVuSans-38"/>
       <use xlink:href="#DejaVuSans-30" x="63.623047"/>
      </g>
     </g>
    </g>
    <g id="text_10">
     <!-- Average Age of Participants  -->
     <g transform="translate(146.037812 186.891781) scale(0.1 -0.1)">
      <defs>
       <path id="DejaVuSans-41" d="M 2188 4044 
L 1331 1722 
L 3047 1722 
L 2188 4044 
z
M 1831 4666 
L 2547 4666 
L 4325 0 
L 3669 0 
L 3244 1197 
L 1141 1197 
L 716 0 
L 50 0 
L 1831 4666 
z
" transform="scale(0.015625)"/>
       <path id="DejaVuSans-76" d="M 191 3500 
L 800 3500 
L 1894 563 
L 2988 3500 
L 3597 3500 
L 2284 0 
L 1503 0 
L 191 3500 
z
" transform="scale(0.015625)"/>
       <path id="DejaVuSans-65" d="M 3597 1894 
L 3597 1613 
L 953 1613 
Q 991 1019 1311 708 
Q 1631 397 2203 397 
Q 2534 397 2845 478 
Q 3156 559 3463 722 
L 3463 178 
Q 3153 47 2828 -22 
Q 2503 -91 2169 -91 
Q 1331 -91 842 396 
Q 353 884 353 1716 
Q 353 2575 817 3079 
Q 1281 3584 2069 3584 
Q 2775 3584 3186 3129 
Q 3597 2675 3597 1894 
z
M 3022 2063 
Q 3016 2534 2758 2815 
Q 2500 3097 2075 3097 
Q 1594 3097 1305 2825 
Q 1016 2553 972 2059 
L 3022 2063 
z
" transform="scale(0.015625)"/>
       <path id="DejaVuSans-72" d="M 2631 2963 
Q 2534 3019 2420 3045 
Q 2306 3072 2169 3072 
Q 1681 3072 1420 2755 
Q 1159 2438 1159 1844 
L 1159 0 
L 581 0 
L 581 3500 
L 1159 3500 
L 1159 2956 
Q 1341 3275 1631 3429 
Q 1922 3584 2338 3584 
Q 2397 3584 2469 3576 
Q 2541 3569 2628 3553 
L 2631 2963 
z
" transform="scale(0.015625)"/>
       <path id="DejaVuSans-61" d="M 2194 1759 
Q 1497 1759 1228 1600 
Q 959 1441 959 1056 
Q 959 750 1161 570 
Q 1363 391 1709 391 
Q 2188 391 2477 730 
Q 2766 1069 2766 1631 
L 2766 1759 
L 2194 1759 
z
M 3341 1997 
L 3341 0 
L 2766 0 
L 2766 531 
Q 2569 213 2275 61 
Q 1981 -91 1556 -91 
Q 1019 -91 701 211 
Q 384 513 384 1019 
Q 384 1609 779 1909 
Q 1175 2209 1959 2209 
L 2766 2209 
L 2766 2266 
Q 2766 2663 2505 2880 
Q 2244 3097 1772 3097 
Q 1472 3097 1187 3025 
Q 903 2953 641 2809 
L 641 3341 
Q 956 3463 1253 3523 
Q 1550 3584 1831 3584 
Q 2591 3584 2966 3190 
Q 3341 2797 3341 1997 
z
" transform="scale(0.015625)"/>
       <path id="DejaVuSans-67" d="M 2906 1791 
Q 2906 2416 2648 2759 
Q 2391 3103 1925 3103 
Q 1463 3103 1205 2759 
Q 947 2416 947 1791 
Q 947 1169 1205 825 
Q 1463 481 1925 481 
Q 2391 481 2648 825 
Q 2906 1169 2906 1791 
z
M 3481 434 
Q 3481 -459 3084 -895 
Q 2688 -1331 1869 -1331 
Q 1566 -1331 1297 -1286 
Q 1028 -1241 775 -1147 
L 775 -588 
Q 1028 -725 1275 -790 
Q 1522 -856 1778 -856 
Q 2344 -856 2625 -561 
Q 2906 -266 2906 331 
L 2906 616 
Q 2728 306 2450 153 
Q 2172 0 1784 0 
Q 1141 0 747 490 
Q 353 981 353 1791 
Q 353 2603 747 3093 
Q 1141 3584 1784 3584 
Q 2172 3584 2450 3431 
Q 2728 3278 2906 2969 
L 2906 3500 
L 3481 3500 
L 3481 434 
z
" transform="scale(0.015625)"/>
       <path id="DejaVuSans-20" transform="scale(0.015625)"/>
       <path id="DejaVuSans-6f" d="M 1959 3097 
Q 1497 3097 1228 2736 
Q 959 2375 959 1747 
Q 959 1119 1226 758 
Q 1494 397 1959 397 
Q 2419 397 2687 759 
Q 2956 1122 2956 1747 
Q 2956 2369 2687 2733 
Q 2419 3097 1959 3097 
z
M 1959 3584 
Q 2709 3584 3137 3096 
Q 3566 2609 3566 1747 
Q 3566 888 3137 398 
Q 2709 -91 1959 -91 
Q 1206 -91 779 398 
Q 353 888 353 1747 
Q 353 2609 779 3096 
Q 1206 3584 1959 3584 
z
" transform="scale(0.015625)"/>
       <path id="DejaVuSans-66" d="M 2375 4863 
L 2375 4384 
L 1825 4384 
Q 1516 4384 1395 4259 
Q 1275 4134 1275 3809 
L 1275 3500 
L 2222 3500 
L 2222 3053 
L 1275 3053 
L 1275 0 
L 697 0 
L 697 3053 
L 147 3053 
L 147 3500 
L 697 3500 
L 697 3744 
Q 697 4328 969 4595 
Q 1241 4863 1831 4863 
L 2375 4863 
z
" transform="scale(0.015625)"/>
       <path id="DejaVuSans-50" d="M 1259 4147 
L 1259 2394 
L 2053 2394 
Q 2494 2394 2734 2622 
Q 2975 2850 2975 3272 
Q 2975 3691 2734 3919 
Q 2494 4147 2053 4147 
L 1259 4147 
z
M 628 4666 
L 2053 4666 
Q 2838 4666 3239 4311 
Q 3641 3956 3641 3272 
Q 3641 2581 3239 2228 
Q 2838 1875 2053 1875 
L 1259 1875 
L 1259 0 
L 628 0 
L 628 4666 
z
" transform="scale(0.015625)"/>
       <path id="DejaVuSans-74" d="M 1172 4494 
L 1172 3500 
L 2356 3500 
L 2356 3053 
L 1172 3053 
L 1172 1153 
Q 1172 725 1289 603 
Q 1406 481 1766 481 
L 2356 481 
L 2356 0 
L 1766 0 
Q 1100 0 847 248 
Q 594 497 594 1153 
L 594 3053 
L 172 3053 
L 172 3500 
L 594 3500 
L 594 4494 
L 1172 4494 
z
" transform="scale(0.015625)"/>
       <path id="DejaVuSans-69" d="M 603 3500 
L 1178 3500 
L 1178 0 
L 603 0 
L 603 3500 
z
M 603 4863 
L 1178 4863 
L 1178 4134 
L 603 4134 
L 603 4863 
z
" transform="scale(0.015625)"/>
       <path id="DejaVuSans-63" d="M 3122 3366 
L 3122 2828 
Q 2878 2963 2633 3030 
Q 2388 3097 2138 3097 
Q 1578 3097 1268 2742 
Q 959 2388 959 1747 
Q 959 1106 1268 751 
Q 1578 397 2138 397 
Q 2388 397 2633 464 
Q 2878 531 3122 666 
L 3122 134 
Q 2881 22 2623 -34 
Q 2366 -91 2075 -91 
Q 1284 -91 818 406 
Q 353 903 353 1747 
Q 353 2603 823 3093 
Q 1294 3584 2113 3584 
Q 2378 3584 2631 3529 
Q 2884 3475 3122 3366 
z
" transform="scale(0.015625)"/>
       <path id="DejaVuSans-70" d="M 1159 525 
L 1159 -1331 
L 581 -1331 
L 581 3500 
L 1159 3500 
L 1159 2969 
Q 1341 3281 1617 3432 
Q 1894 3584 2278 3584 
Q 2916 3584 3314 3078 
Q 3713 2572 3713 1747 
Q 3713 922 3314 415 
Q 2916 -91 2278 -91 
Q 1894 -91 1617 61 
Q 1341 213 1159 525 
z
M 3116 1747 
Q 3116 2381 2855 2742 
Q 2594 3103 2138 3103 
Q 1681 3103 1420 2742 
Q 1159 2381 1159 1747 
Q 1159 1113 1420 752 
Q 1681 391 2138 391 
Q 2594 391 2855 752 
Q 3116 1113 3116 1747 
z
" transform="scale(0.015625)"/>
       <path id="DejaVuSans-6e" d="M 3513 2113 
L 3513 0 
L 2938 0 
L 2938 2094 
Q 2938 2591 2744 2837 
Q 2550 3084 2163 3084 
Q 1697 3084 1428 2787 
Q 1159 2491 1159 1978 
L 1159 0 
L 581 0 
L 581 3500 
L 1159 3500 
L 1159 2956 
Q 1366 3272 1645 3428 
Q 1925 3584 2291 3584 
Q 2894 3584 3203 3211 
Q 3513 2838 3513 2113 
z
" transform="scale(0.015625)"/>
       <path id="DejaVuSans-73" d="M 2834 3397 
L 2834 2853 
Q 2591 2978 2328 3040 
Q 2066 3103 1784 3103 
Q 1356 3103 1142 2972 
Q 928 2841 928 2578 
Q 928 2378 1081 2264 
Q 1234 2150 1697 2047 
L 1894 2003 
Q 2506 1872 2764 1633 
Q 3022 1394 3022 966 
Q 3022 478 2636 193 
Q 2250 -91 1575 -91 
Q 1294 -91 989 -36 
Q 684 19 347 128 
L 347 722 
Q 666 556 975 473 
Q 1284 391 1588 391 
Q 1994 391 2212 530 
Q 2431 669 2431 922 
Q 2431 1156 2273 1281 
Q 2116 1406 1581 1522 
L 1381 1569 
Q 847 1681 609 1914 
Q 372 2147 372 2553 
Q 372 3047 722 3315 
Q 1072 3584 1716 3584 
Q 2034 3584 2315 3537 
Q 2597 3491 2834 3397 
z
" transform="scale(0.015625)"/>
      </defs>
      <use xlink:href="#DejaVuSans-41"/>
      <use xlink:href="#DejaVuSans-76" x="62.533203"/>
      <use xlink:href="#DejaVuSans-65" x="121.712891"/>
      <use xlink:href="#DejaVuSans-72" x="183.236328"/>
      <use xlink:href="#DejaVuSans-61" x="224.349609"/>
      <use xlink:href="#DejaVuSans-67" x="285.628906"/>
      <use xlink:href="#DejaVuSans-65" x="349.105469"/>
      <use xlink:href="#DejaVuSans-20" x="410.628906"/>
      <use xlink:href="#DejaVuSans-41" x="442.416016"/>
      <use xlink:href="#DejaVuSans-67" x="510.824219"/>
      <use xlink:href="#DejaVuSans-65" x="574.300781"/>
      <use xlink:href="#DejaVuSans-20" x="635.824219"/>
      <use xlink:href="#DejaVuSans-6f" x="667.611328"/>
      <use xlink:href="#DejaVuSans-66" x="728.792969"/>
      <use xlink:href="#DejaVuSans-20" x="763.998047"/>
      <use xlink:href="#DejaVuSans-50" x="795.785156"/>
      <use xlink:href="#DejaVuSans-61" x="851.587891"/>
      <use xlink:href="#DejaVuSans-72" x="912.867188"/>
      <use xlink:href="#DejaVuSans-74" x="953.980469"/>
      <use xlink:href="#DejaVuSans-69" x="993.189453"/>
      <use xlink:href="#DejaVuSans-63" x="1020.972656"/>
      <use xlink:href="#DejaVuSans-69" x="1075.953125"/>
      <use xlink:href="#DejaVuSans-70" x="1103.736328"/>
      <use xlink:href="#DejaVuSans-61" x="1167.212891"/>
      <use xlink:href="#DejaVuSans-6e" x="1228.492188"/>
      <use xlink:href="#DejaVuSans-74" x="1291.871094"/>
      <use xlink:href="#DejaVuSans-73" x="1331.080078"/>
      <use xlink:href="#DejaVuSans-20" x="1383.179688"/>
     </g>
     <!--  (Total N = 95) -->
     <g transform="translate(180.558906 198.089594) scale(0.1 -0.1)">
      <defs>
       <path id="DejaVuSans-28" d="M 1984 4856 
Q 1566 4138 1362 3434 
Q 1159 2731 1159 2009 
Q 1159 1288 1364 580 
Q 1569 -128 1984 -844 
L 1484 -844 
Q 1016 -109 783 600 
Q 550 1309 550 2009 
Q 550 2706 781 3412 
Q 1013 4119 1484 4856 
L 1984 4856 
z
" transform="scale(0.015625)"/>
       <path id="DejaVuSans-54" d="M -19 4666 
L 3928 4666 
L 3928 4134 
L 2272 4134 
L 2272 0 
L 1638 0 
L 1638 4134 
L -19 4134 
L -19 4666 
z
" transform="scale(0.015625)"/>
       <path id="DejaVuSans-6c" d="M 603 4863 
L 1178 4863 
L 1178 0 
L 603 0 
L 603 4863 
z
" transform="scale(0.015625)"/>
       <path id="DejaVuSans-4e" d="M 628 4666 
L 1478 4666 
L 3547 763 
L 3547 4666 
L 4159 4666 
L 4159 0 
L 3309 0 
L 1241 3903 
L 1241 0 
L 628 0 
L 628 4666 
z
" transform="scale(0.015625)"/>
       <path id="DejaVuSans-3d" d="M 678 2906 
L 4684 2906 
L 4684 2381 
L 678 2381 
L 678 2906 
z
M 678 1631 
L 4684 1631 
L 4684 1100 
L 678 1100 
L 678 1631 
z
" transform="scale(0.015625)"/>
       <path id="DejaVuSans-39" d="M 703 97 
L 703 672 
Q 941 559 1184 500 
Q 1428 441 1663 441 
Q 2288 441 2617 861 
Q 2947 1281 2994 2138 
Q 2813 1869 2534 1725 
Q 2256 1581 1919 1581 
Q 1219 1581 811 2004 
Q 403 2428 403 3163 
Q 403 3881 828 4315 
Q 1253 4750 1959 4750 
Q 2769 4750 3195 4129 
Q 3622 3509 3622 2328 
Q 3622 1225 3098 567 
Q 2575 -91 1691 -91 
Q 1453 -91 1209 -44 
Q 966 3 703 97 
z
M 1959 2075 
Q 2384 2075 2632 2365 
Q 2881 2656 2881 3163 
Q 2881 3666 2632 3958 
Q 2384 4250 1959 4250 
Q 1534 4250 1286 3958 
Q 1038 3666 1038 3163 
Q 1038 2656 1286 2365 
Q 1534 2075 1959 2075 
z
" transform="scale(0.015625)"/>
       <path id="DejaVuSans-29" d="M 513 4856 
L 1013 4856 
Q 1481 4119 1714 3412 
Q 1947 2706 1947 2009 
Q 1947 1309 1714 600 
Q 1481 -109 1013 -844 
L 513 -844 
Q 928 -128 1133 580 
Q 1338 1288 1338 2009 
Q 1338 2731 1133 3434 
Q 928 4138 513 4856 
z
" transform="scale(0.015625)"/>
      </defs>
      <use xlink:href="#DejaVuSans-20"/>
      <use xlink:href="#DejaVuSans-28" x="31.787109"/>
      <use xlink:href="#DejaVuSans-54" x="70.800781"/>
      <use xlink:href="#DejaVuSans-6f" x="114.884766"/>
      <use xlink:href="#DejaVuSans-74" x="176.066406"/>
      <use xlink:href="#DejaVuSans-61" x="215.275391"/>
      <use xlink:href="#DejaVuSans-6c" x="276.554688"/>
      <use xlink:href="#DejaVuSans-20" x="304.337891"/>
      <use xlink:href="#DejaVuSans-4e" x="336.125"/>
      <use xlink:href="#DejaVuSans-20" x="410.929688"/>
      <use xlink:href="#DejaVuSans-3d" x="442.716797"/>
      <use xlink:href="#DejaVuSans-20" x="526.505859"/>
      <use xlink:href="#DejaVuSans-39" x="558.292969"/>
      <use xlink:href="#DejaVuSans-35" x="621.916016"/>
      <use xlink:href="#DejaVuSans-29" x="685.539062"/>
     </g>
    </g>
   </g>
   <g id="matplotlib.axis_2">
    <g id="ytick_1">
     <g id="line2d_10">
      <defs>
       <path id="mf81accef00" d="M 0 0 
L -3.5 0 
" style="stroke: #000000; stroke-width: 0.8"/>
      </defs>
      <g>
       <use xlink:href="#mf81accef00" x="43.78125" y="158.615219" style="stroke: #000000; stroke-width: 0.8"/>
      </g>
     </g>
     <g id="text_11">
      <!-- 0.0 -->
      <g transform="translate(20.878125 162.414437) scale(0.1 -0.1)">
       <defs>
        <path id="DejaVuSans-2e" d="M 684 794 
L 1344 794 
L 1344 0 
L 684 0 
L 684 794 
z
" transform="scale(0.015625)"/>
       </defs>
       <use xlink:href="#DejaVuSans-30"/>
       <use xlink:href="#DejaVuSans-2e" x="63.623047"/>
       <use xlink:href="#DejaVuSans-30" x="95.410156"/>
      </g>
     </g>
    </g>
    <g id="ytick_2">
     <g id="line2d_11">
      <g>
       <use xlink:href="#mf81accef00" x="43.78125" y="129.092019" style="stroke: #000000; stroke-width: 0.8"/>
      </g>
     </g>
     <g id="text_12">
      <!-- 0.2 -->
      <g transform="translate(20.878125 132.891237) scale(0.1 -0.1)">
       <use xlink:href="#DejaVuSans-30"/>
       <use xlink:href="#DejaVuSans-2e" x="63.623047"/>
       <use xlink:href="#DejaVuSans-32" x="95.410156"/>
      </g>
     </g>
    </g>
    <g id="ytick_3">
     <g id="line2d_12">
      <g>
       <use xlink:href="#mf81accef00" x="43.78125" y="99.568819" style="stroke: #000000; stroke-width: 0.8"/>
      </g>
     </g>
     <g id="text_13">
      <!-- 0.4 -->
      <g transform="translate(20.878125 103.368038) scale(0.1 -0.1)">
       <use xlink:href="#DejaVuSans-30"/>
       <use xlink:href="#DejaVuSans-2e" x="63.623047"/>
       <use xlink:href="#DejaVuSans-34" x="95.410156"/>
      </g>
     </g>
    </g>
    <g id="ytick_4">
     <g id="line2d_13">
      <g>
       <use xlink:href="#mf81accef00" x="43.78125" y="70.045619" style="stroke: #000000; stroke-width: 0.8"/>
      </g>
     </g>
     <g id="text_14">
      <!-- 0.6 -->
      <g transform="translate(20.878125 73.844837) scale(0.1 -0.1)">
       <use xlink:href="#DejaVuSans-30"/>
       <use xlink:href="#DejaVuSans-2e" x="63.623047"/>
       <use xlink:href="#DejaVuSans-36" x="95.410156"/>
      </g>
     </g>
    </g>
    <g id="ytick_5">
     <g id="line2d_14">
      <g>
       <use xlink:href="#mf81accef00" x="43.78125" y="40.522419" style="stroke: #000000; stroke-width: 0.8"/>
      </g>
     </g>
     <g id="text_15">
      <!-- 0.8 -->
      <g transform="translate(20.878125 44.321638) scale(0.1 -0.1)">
       <use xlink:href="#DejaVuSans-30"/>
       <use xlink:href="#DejaVuSans-2e" x="63.623047"/>
       <use xlink:href="#DejaVuSans-38" x="95.410156"/>
      </g>
     </g>
    </g>
    <g id="ytick_6">
     <g id="line2d_15">
      <g>
       <use xlink:href="#mf81accef00" x="43.78125" y="10.999219" style="stroke: #000000; stroke-width: 0.8"/>
      </g>
     </g>
     <g id="text_16">
      <!-- 1.0 -->
      <g transform="translate(20.878125 14.798438) scale(0.1 -0.1)">
       <use xlink:href="#DejaVuSans-31"/>
       <use xlink:href="#DejaVuSans-2e" x="63.623047"/>
       <use xlink:href="#DejaVuSans-30" x="95.410156"/>
      </g>
     </g>
    </g>
    <g id="text_17">
     <!-- Density -->
     <g transform="translate(14.798438 103.815813) rotate(-90) scale(0.1 -0.1)">
      <defs>
       <path id="DejaVuSans-44" d="M 1259 4147 
L 1259 519 
L 2022 519 
Q 2988 519 3436 956 
Q 3884 1394 3884 2338 
Q 3884 3275 3436 3711 
Q 2988 4147 2022 4147 
L 1259 4147 
z
M 628 4666 
L 1925 4666 
Q 3281 4666 3915 4102 
Q 4550 3538 4550 2338 
Q 4550 1131 3912 565 
Q 3275 0 1925 0 
L 628 0 
L 628 4666 
z
" transform="scale(0.015625)"/>
       <path id="DejaVuSans-79" d="M 2059 -325 
Q 1816 -950 1584 -1140 
Q 1353 -1331 966 -1331 
L 506 -1331 
L 506 -850 
L 844 -850 
Q 1081 -850 1212 -737 
Q 1344 -625 1503 -206 
L 1606 56 
L 191 3500 
L 800 3500 
L 1894 763 
L 2988 3500 
L 3597 3500 
L 2059 -325 
z
" transform="scale(0.015625)"/>
      </defs>
      <use xlink:href="#DejaVuSans-44"/>
      <use xlink:href="#DejaVuSans-65" x="77.001953"/>
      <use xlink:href="#DejaVuSans-6e" x="138.525391"/>
      <use xlink:href="#DejaVuSans-73" x="201.904297"/>
      <use xlink:href="#DejaVuSans-69" x="254.003906"/>
      <use xlink:href="#DejaVuSans-74" x="281.787109"/>
      <use xlink:href="#DejaVuSans-79" x="320.996094"/>
     </g>
    </g>
   </g>
   <g id="patch_3">
    <path d="M 43.78125 158.615219 
L 43.78125 10.999219 
" style="fill: none; stroke: #000000; stroke-width: 0.8; stroke-linejoin: miter; stroke-linecap: square"/>
   </g>
   <g id="patch_4">
    <path d="M 389.79125 158.615219 
L 389.79125 10.999219 
" style="fill: none; stroke: #000000; stroke-width: 0.8; stroke-linejoin: miter; stroke-linecap: square"/>
   </g>
   <g id="patch_5">
    <path d="M 43.78125 158.615219 
L 389.79125 158.615219 
" style="fill: none; stroke: #000000; stroke-width: 0.8; stroke-linejoin: miter; stroke-linecap: square"/>
   </g>
   <g id="patch_6">
    <path d="M 43.78125 10.999219 
L 389.79125 10.999219 
" style="fill: none; stroke: #000000; stroke-width: 0.8; stroke-linejoin: miter; stroke-linecap: square"/>
   </g>
  </g>
  <g id="axes_2">
   <g id="patch_7">
    <path d="M 59.508977 158.615219 
L 63.817944 158.615219 
L 63.817944 142.994478 
L 59.508977 142.994478 
z
" clip-path="url(#pe5098cceb5)" style="fill: #000080; fill-opacity: 0.5; stroke: #000000; stroke-width: 0.416936; stroke-linejoin: miter"/>
   </g>
   <g id="patch_8">
    <path d="M 63.817944 158.615219 
L 68.12691 158.615219 
L 68.12691 158.615219 
L 63.817944 158.615219 
z
" clip-path="url(#pe5098cceb5)" style="fill: #000080; fill-opacity: 0.5; stroke: #000000; stroke-width: 0.416936; stroke-linejoin: miter"/>
   </g>
   <g id="patch_9">
    <path d="M 68.12691 158.615219 
L 72.435876 158.615219 
L 72.435876 158.615219 
L 68.12691 158.615219 
z
" clip-path="url(#pe5098cceb5)" style="fill: #000080; fill-opacity: 0.5; stroke: #000000; stroke-width: 0.416936; stroke-linejoin: miter"/>
   </g>
   <g id="patch_10">
    <path d="M 72.435876 158.615219 
L 76.744843 158.615219 
L 76.744843 158.615219 
L 72.435876 158.615219 
z
" clip-path="url(#pe5098cceb5)" style="fill: #000080; fill-opacity: 0.5; stroke: #000000; stroke-width: 0.416936; stroke-linejoin: miter"/>
   </g>
   <g id="patch_11">
    <path d="M 76.744843 158.615219 
L 81.053809 158.615219 
L 81.053809 142.994478 
L 76.744843 142.994478 
z
" clip-path="url(#pe5098cceb5)" style="fill: #000080; fill-opacity: 0.5; stroke: #000000; stroke-width: 0.416936; stroke-linejoin: miter"/>
   </g>
   <g id="patch_12">
    <path d="M 81.053809 158.615219 
L 85.362776 158.615219 
L 85.362776 142.994478 
L 81.053809 142.994478 
z
" clip-path="url(#pe5098cceb5)" style="fill: #000080; fill-opacity: 0.5; stroke: #000000; stroke-width: 0.416936; stroke-linejoin: miter"/>
   </g>
   <g id="patch_13">
    <path d="M 85.362776 158.615219 
L 89.671742 158.615219 
L 89.671742 142.994478 
L 85.362776 142.994478 
z
" clip-path="url(#pe5098cceb5)" style="fill: #000080; fill-opacity: 0.5; stroke: #000000; stroke-width: 0.416936; stroke-linejoin: miter"/>
   </g>
   <g id="patch_14">
    <path d="M 89.671742 158.615219 
L 93.980708 158.615219 
L 93.980708 158.615219 
L 89.671742 158.615219 
z
" clip-path="url(#pe5098cceb5)" style="fill: #000080; fill-opacity: 0.5; stroke: #000000; stroke-width: 0.416936; stroke-linejoin: miter"/>
   </g>
   <g id="patch_15">
    <path d="M 93.980708 158.615219 
L 98.289675 158.615219 
L 98.289675 142.994478 
L 93.980708 142.994478 
z
" clip-path="url(#pe5098cceb5)" style="fill: #000080; fill-opacity: 0.5; stroke: #000000; stroke-width: 0.416936; stroke-linejoin: miter"/>
   </g>
   <g id="patch_16">
    <path d="M 98.289675 158.615219 
L 102.598641 158.615219 
L 102.598641 158.615219 
L 98.289675 158.615219 
z
" clip-path="url(#pe5098cceb5)" style="fill: #000080; fill-opacity: 0.5; stroke: #000000; stroke-width: 0.416936; stroke-linejoin: miter"/>
   </g>
   <g id="patch_17">
    <path d="M 102.598641 158.615219 
L 106.907607 158.615219 
L 106.907607 158.615219 
L 102.598641 158.615219 
z
" clip-path="url(#pe5098cceb5)" style="fill: #000080; fill-opacity: 0.5; stroke: #000000; stroke-width: 0.416936; stroke-linejoin: miter"/>
   </g>
   <g id="patch_18">
    <path d="M 106.907607 158.615219 
L 111.216574 158.615219 
L 111.216574 158.615219 
L 106.907607 158.615219 
z
" clip-path="url(#pe5098cceb5)" style="fill: #000080; fill-opacity: 0.5; stroke: #000000; stroke-width: 0.416936; stroke-linejoin: miter"/>
   </g>
   <g id="patch_19">
    <path d="M 111.216574 158.615219 
L 115.52554 158.615219 
L 115.52554 158.615219 
L 111.216574 158.615219 
z
" clip-path="url(#pe5098cceb5)" style="fill: #000080; fill-opacity: 0.5; stroke: #000000; stroke-width: 0.416936; stroke-linejoin: miter"/>
   </g>
   <g id="patch_20">
    <path d="M 115.52554 158.615219 
L 119.834507 158.615219 
L 119.834507 142.994478 
L 115.52554 142.994478 
z
" clip-path="url(#pe5098cceb5)" style="fill: #000080; fill-opacity: 0.5; stroke: #000000; stroke-width: 0.416936; stroke-linejoin: miter"/>
   </g>
   <g id="patch_21">
    <path d="M 119.834507 158.615219 
L 124.143473 158.615219 
L 124.143473 158.615219 
L 119.834507 158.615219 
z
" clip-path="url(#pe5098cceb5)" style="fill: #000080; fill-opacity: 0.5; stroke: #000000; stroke-width: 0.416936; stroke-linejoin: miter"/>
   </g>
   <g id="patch_22">
    <path d="M 124.143473 158.615219 
L 128.452439 158.615219 
L 128.452439 158.615219 
L 124.143473 158.615219 
z
" clip-path="url(#pe5098cceb5)" style="fill: #000080; fill-opacity: 0.5; stroke: #000000; stroke-width: 0.416936; stroke-linejoin: miter"/>
   </g>
   <g id="patch_23">
    <path d="M 128.452439 158.615219 
L 132.761406 158.615219 
L 132.761406 142.994478 
L 128.452439 142.994478 
z
" clip-path="url(#pe5098cceb5)" style="fill: #000080; fill-opacity: 0.5; stroke: #000000; stroke-width: 0.416936; stroke-linejoin: miter"/>
   </g>
   <g id="patch_24">
    <path d="M 132.761406 158.615219 
L 137.070372 158.615219 
L 137.070372 158.615219 
L 132.761406 158.615219 
z
" clip-path="url(#pe5098cceb5)" style="fill: #000080; fill-opacity: 0.5; stroke: #000000; stroke-width: 0.416936; stroke-linejoin: miter"/>
   </g>
   <g id="patch_25">
    <path d="M 137.070372 158.615219 
L 141.379338 158.615219 
L 141.379338 158.615219 
L 137.070372 158.615219 
z
" clip-path="url(#pe5098cceb5)" style="fill: #000080; fill-opacity: 0.5; stroke: #000000; stroke-width: 0.416936; stroke-linejoin: miter"/>
   </g>
   <g id="patch_26">
    <path d="M 141.379338 158.615219 
L 145.688305 158.615219 
L 145.688305 127.373737 
L 141.379338 127.373737 
z
" clip-path="url(#pe5098cceb5)" style="fill: #000080; fill-opacity: 0.5; stroke: #000000; stroke-width: 0.416936; stroke-linejoin: miter"/>
   </g>
   <g id="patch_27">
    <path d="M 145.688305 158.615219 
L 149.997271 158.615219 
L 149.997271 158.615219 
L 145.688305 158.615219 
z
" clip-path="url(#pe5098cceb5)" style="fill: #000080; fill-opacity: 0.5; stroke: #000000; stroke-width: 0.416936; stroke-linejoin: miter"/>
   </g>
   <g id="patch_28">
    <path d="M 149.997271 158.615219 
L 154.306238 158.615219 
L 154.306238 142.994478 
L 149.997271 142.994478 
z
" clip-path="url(#pe5098cceb5)" style="fill: #000080; fill-opacity: 0.5; stroke: #000000; stroke-width: 0.416936; stroke-linejoin: miter"/>
   </g>
   <g id="patch_29">
    <path d="M 154.306238 158.615219 
L 158.615204 158.615219 
L 158.615204 18.028552 
L 154.306238 18.028552 
z
" clip-path="url(#pe5098cceb5)" style="fill: #000080; fill-opacity: 0.5; stroke: #000000; stroke-width: 0.416936; stroke-linejoin: miter"/>
   </g>
   <g id="patch_30">
    <path d="M 158.615204 158.615219 
L 162.92417 158.615219 
L 162.92417 33.649293 
L 158.615204 33.649293 
z
" clip-path="url(#pe5098cceb5)" style="fill: #000080; fill-opacity: 0.5; stroke: #000000; stroke-width: 0.416936; stroke-linejoin: miter"/>
   </g>
   <g id="patch_31">
    <path d="M 162.92417 158.615219 
L 167.233137 158.615219 
L 167.233137 33.649293 
L 162.92417 33.649293 
z
" clip-path="url(#pe5098cceb5)" style="fill: #000080; fill-opacity: 0.5; stroke: #000000; stroke-width: 0.416936; stroke-linejoin: miter"/>
   </g>
   <g id="patch_32">
    <path d="M 167.233137 158.615219 
L 171.542103 158.615219 
L 171.542103 111.752997 
L 167.233137 111.752997 
z
" clip-path="url(#pe5098cceb5)" style="fill: #000080; fill-opacity: 0.5; stroke: #000000; stroke-width: 0.416936; stroke-linejoin: miter"/>
   </g>
   <g id="patch_33">
    <path d="M 171.542103 158.615219 
L 175.851069 158.615219 
L 175.851069 49.270034 
L 171.542103 49.270034 
z
" clip-path="url(#pe5098cceb5)" style="fill: #000080; fill-opacity: 0.5; stroke: #000000; stroke-width: 0.416936; stroke-linejoin: miter"/>
   </g>
   <g id="patch_34">
    <path d="M 175.851069 158.615219 
L 180.160036 158.615219 
L 180.160036 111.752997 
L 175.851069 111.752997 
z
" clip-path="url(#pe5098cceb5)" style="fill: #000080; fill-opacity: 0.5; stroke: #000000; stroke-width: 0.416936; stroke-linejoin: miter"/>
   </g>
   <g id="patch_35">
    <path d="M 180.160036 158.615219 
L 184.469002 158.615219 
L 184.469002 142.994478 
L 180.160036 142.994478 
z
" clip-path="url(#pe5098cceb5)" style="fill: #000080; fill-opacity: 0.5; stroke: #000000; stroke-width: 0.416936; stroke-linejoin: miter"/>
   </g>
   <g id="patch_36">
    <path d="M 184.469002 158.615219 
L 188.777969 158.615219 
L 188.777969 127.373737 
L 184.469002 127.373737 
z
" clip-path="url(#pe5098cceb5)" style="fill: #000080; fill-opacity: 0.5; stroke: #000000; stroke-width: 0.416936; stroke-linejoin: miter"/>
   </g>
   <g id="patch_37">
    <path d="M 188.777969 158.615219 
L 193.086935 158.615219 
L 193.086935 158.615219 
L 188.777969 158.615219 
z
" clip-path="url(#pe5098cceb5)" style="fill: #000080; fill-opacity: 0.5; stroke: #000000; stroke-width: 0.416936; stroke-linejoin: miter"/>
   </g>
   <g id="patch_38">
    <path d="M 193.086935 158.615219 
L 197.395901 158.615219 
L 197.395901 127.373737 
L 193.086935 127.373737 
z
" clip-path="url(#pe5098cceb5)" style="fill: #000080; fill-opacity: 0.5; stroke: #000000; stroke-width: 0.416936; stroke-linejoin: miter"/>
   </g>
   <g id="patch_39">
    <path d="M 197.395901 158.615219 
L 201.704868 158.615219 
L 201.704868 158.615219 
L 197.395901 158.615219 
z
" clip-path="url(#pe5098cceb5)" style="fill: #000080; fill-opacity: 0.5; stroke: #000000; stroke-width: 0.416936; stroke-linejoin: miter"/>
   </g>
   <g id="patch_40">
    <path d="M 201.704868 158.615219 
L 206.013834 158.615219 
L 206.013834 142.994478 
L 201.704868 142.994478 
z
" clip-path="url(#pe5098cceb5)" style="fill: #000080; fill-opacity: 0.5; stroke: #000000; stroke-width: 0.416936; stroke-linejoin: miter"/>
   </g>
   <g id="patch_41">
    <path d="M 206.013834 158.615219 
L 210.3228 158.615219 
L 210.3228 158.615219 
L 206.013834 158.615219 
z
" clip-path="url(#pe5098cceb5)" style="fill: #000080; fill-opacity: 0.5; stroke: #000000; stroke-width: 0.416936; stroke-linejoin: miter"/>
   </g>
   <g id="patch_42">
    <path d="M 210.3228 158.615219 
L 214.631767 158.615219 
L 214.631767 158.615219 
L 210.3228 158.615219 
z
" clip-path="url(#pe5098cceb5)" style="fill: #000080; fill-opacity: 0.5; stroke: #000000; stroke-width: 0.416936; stroke-linejoin: miter"/>
   </g>
   <g id="patch_43">
    <path d="M 214.631767 158.615219 
L 218.940733 158.615219 
L 218.940733 96.132256 
L 214.631767 96.132256 
z
" clip-path="url(#pe5098cceb5)" style="fill: #000080; fill-opacity: 0.5; stroke: #000000; stroke-width: 0.416936; stroke-linejoin: miter"/>
   </g>
   <g id="patch_44">
    <path d="M 218.940733 158.615219 
L 223.2497 158.615219 
L 223.2497 142.994478 
L 218.940733 142.994478 
z
" clip-path="url(#pe5098cceb5)" style="fill: #000080; fill-opacity: 0.5; stroke: #000000; stroke-width: 0.416936; stroke-linejoin: miter"/>
   </g>
   <g id="patch_45">
    <path d="M 223.2497 158.615219 
L 227.558666 158.615219 
L 227.558666 158.615219 
L 223.2497 158.615219 
z
" clip-path="url(#pe5098cceb5)" style="fill: #000080; fill-opacity: 0.5; stroke: #000000; stroke-width: 0.416936; stroke-linejoin: miter"/>
   </g>
   <g id="patch_46">
    <path d="M 227.558666 158.615219 
L 231.867632 158.615219 
L 231.867632 158.615219 
L 227.558666 158.615219 
z
" clip-path="url(#pe5098cceb5)" style="fill: #000080; fill-opacity: 0.5; stroke: #000000; stroke-width: 0.416936; stroke-linejoin: miter"/>
   </g>
   <g id="patch_47">
    <path d="M 231.867632 158.615219 
L 236.176599 158.615219 
L 236.176599 96.132256 
L 231.867632 96.132256 
z
" clip-path="url(#pe5098cceb5)" style="fill: #000080; fill-opacity: 0.5; stroke: #000000; stroke-width: 0.416936; stroke-linejoin: miter"/>
   </g>
   <g id="patch_48">
    <path d="M 236.176599 158.615219 
L 240.485565 158.615219 
L 240.485565 142.994478 
L 236.176599 142.994478 
z
" clip-path="url(#pe5098cceb5)" style="fill: #000080; fill-opacity: 0.5; stroke: #000000; stroke-width: 0.416936; stroke-linejoin: miter"/>
   </g>
   <g id="patch_49">
    <path d="M 240.485565 158.615219 
L 244.794531 158.615219 
L 244.794531 142.994478 
L 240.485565 142.994478 
z
" clip-path="url(#pe5098cceb5)" style="fill: #000080; fill-opacity: 0.5; stroke: #000000; stroke-width: 0.416936; stroke-linejoin: miter"/>
   </g>
   <g id="patch_50">
    <path d="M 244.794531 158.615219 
L 249.103498 158.615219 
L 249.103498 158.615219 
L 244.794531 158.615219 
z
" clip-path="url(#pe5098cceb5)" style="fill: #000080; fill-opacity: 0.5; stroke: #000000; stroke-width: 0.416936; stroke-linejoin: miter"/>
   </g>
   <g id="patch_51">
    <path d="M 249.103498 158.615219 
L 253.412464 158.615219 
L 253.412464 127.373737 
L 249.103498 127.373737 
z
" clip-path="url(#pe5098cceb5)" style="fill: #000080; fill-opacity: 0.5; stroke: #000000; stroke-width: 0.416936; stroke-linejoin: miter"/>
   </g>
   <g id="patch_52">
    <path d="M 253.412464 158.615219 
L 257.721431 158.615219 
L 257.721431 158.615219 
L 253.412464 158.615219 
z
" clip-path="url(#pe5098cceb5)" style="fill: #000080; fill-opacity: 0.5; stroke: #000000; stroke-width: 0.416936; stroke-linejoin: miter"/>
   </g>
   <g id="patch_53">
    <path d="M 257.721431 158.615219 
L 262.030397 158.615219 
L 262.030397 111.752997 
L 257.721431 111.752997 
z
" clip-path="url(#pe5098cceb5)" style="fill: #000080; fill-opacity: 0.5; stroke: #000000; stroke-width: 0.416936; stroke-linejoin: miter"/>
   </g>
   <g id="patch_54">
    <path d="M 262.030397 158.615219 
L 266.339363 158.615219 
L 266.339363 142.994478 
L 262.030397 142.994478 
z
" clip-path="url(#pe5098cceb5)" style="fill: #000080; fill-opacity: 0.5; stroke: #000000; stroke-width: 0.416936; stroke-linejoin: miter"/>
   </g>
   <g id="patch_55">
    <path d="M 266.339363 158.615219 
L 270.64833 158.615219 
L 270.64833 142.994478 
L 266.339363 142.994478 
z
" clip-path="url(#pe5098cceb5)" style="fill: #000080; fill-opacity: 0.5; stroke: #000000; stroke-width: 0.416936; stroke-linejoin: miter"/>
   </g>
   <g id="patch_56">
    <path d="M 270.64833 158.615219 
L 274.957296 158.615219 
L 274.957296 158.615219 
L 270.64833 158.615219 
z
" clip-path="url(#pe5098cceb5)" style="fill: #000080; fill-opacity: 0.5; stroke: #000000; stroke-width: 0.416936; stroke-linejoin: miter"/>
   </g>
   <g id="patch_57">
    <path d="M 274.957296 158.615219 
L 279.266262 158.615219 
L 279.266262 96.132256 
L 274.957296 96.132256 
z
" clip-path="url(#pe5098cceb5)" style="fill: #000080; fill-opacity: 0.5; stroke: #000000; stroke-width: 0.416936; stroke-linejoin: miter"/>
   </g>
   <g id="patch_58">
    <path d="M 279.266262 158.615219 
L 283.575229 158.615219 
L 283.575229 127.373737 
L 279.266262 127.373737 
z
" clip-path="url(#pe5098cceb5)" style="fill: #000080; fill-opacity: 0.5; stroke: #000000; stroke-width: 0.416936; stroke-linejoin: miter"/>
   </g>
   <g id="patch_59">
    <path d="M 283.575229 158.615219 
L 287.884195 158.615219 
L 287.884195 127.373737 
L 283.575229 127.373737 
z
" clip-path="url(#pe5098cceb5)" style="fill: #000080; fill-opacity: 0.5; stroke: #000000; stroke-width: 0.416936; stroke-linejoin: miter"/>
   </g>
   <g id="patch_60">
    <path d="M 287.884195 158.615219 
L 292.193162 158.615219 
L 292.193162 127.373737 
L 287.884195 127.373737 
z
" clip-path="url(#pe5098cceb5)" style="fill: #000080; fill-opacity: 0.5; stroke: #000000; stroke-width: 0.416936; stroke-linejoin: miter"/>
   </g>
   <g id="patch_61">
    <path d="M 292.193162 158.615219 
L 296.502128 158.615219 
L 296.502128 111.752997 
L 292.193162 111.752997 
z
" clip-path="url(#pe5098cceb5)" style="fill: #000080; fill-opacity: 0.5; stroke: #000000; stroke-width: 0.416936; stroke-linejoin: miter"/>
   </g>
   <g id="patch_62">
    <path d="M 296.502128 158.615219 
L 300.811094 158.615219 
L 300.811094 142.994478 
L 296.502128 142.994478 
z
" clip-path="url(#pe5098cceb5)" style="fill: #000080; fill-opacity: 0.5; stroke: #000000; stroke-width: 0.416936; stroke-linejoin: miter"/>
   </g>
   <g id="patch_63">
    <path d="M 300.811094 158.615219 
L 305.120061 158.615219 
L 305.120061 127.373737 
L 300.811094 127.373737 
z
" clip-path="url(#pe5098cceb5)" style="fill: #000080; fill-opacity: 0.5; stroke: #000000; stroke-width: 0.416936; stroke-linejoin: miter"/>
   </g>
   <g id="patch_64">
    <path d="M 305.120061 158.615219 
L 309.429027 158.615219 
L 309.429027 96.132256 
L 305.120061 96.132256 
z
" clip-path="url(#pe5098cceb5)" style="fill: #000080; fill-opacity: 0.5; stroke: #000000; stroke-width: 0.416936; stroke-linejoin: miter"/>
   </g>
   <g id="patch_65">
    <path d="M 309.429027 158.615219 
L 313.737993 158.615219 
L 313.737993 111.752997 
L 309.429027 111.752997 
z
" clip-path="url(#pe5098cceb5)" style="fill: #000080; fill-opacity: 0.5; stroke: #000000; stroke-width: 0.416936; stroke-linejoin: miter"/>
   </g>
   <g id="patch_66">
    <path d="M 313.737993 158.615219 
L 318.04696 158.615219 
L 318.04696 111.752997 
L 313.737993 111.752997 
z
" clip-path="url(#pe5098cceb5)" style="fill: #000080; fill-opacity: 0.5; stroke: #000000; stroke-width: 0.416936; stroke-linejoin: miter"/>
   </g>
   <g id="patch_67">
    <path d="M 318.04696 158.615219 
L 322.355926 158.615219 
L 322.355926 80.511515 
L 318.04696 80.511515 
z
" clip-path="url(#pe5098cceb5)" style="fill: #000080; fill-opacity: 0.5; stroke: #000000; stroke-width: 0.416936; stroke-linejoin: miter"/>
   </g>
   <g id="patch_68">
    <path d="M 322.355926 158.615219 
L 326.664893 158.615219 
L 326.664893 111.752997 
L 322.355926 111.752997 
z
" clip-path="url(#pe5098cceb5)" style="fill: #000080; fill-opacity: 0.5; stroke: #000000; stroke-width: 0.416936; stroke-linejoin: miter"/>
   </g>
   <g id="patch_69">
    <path d="M 326.664893 158.615219 
L 330.973859 158.615219 
L 330.973859 127.373737 
L 326.664893 127.373737 
z
" clip-path="url(#pe5098cceb5)" style="fill: #000080; fill-opacity: 0.5; stroke: #000000; stroke-width: 0.416936; stroke-linejoin: miter"/>
   </g>
   <g id="patch_70">
    <path d="M 330.973859 158.615219 
L 335.282825 158.615219 
L 335.282825 142.994478 
L 330.973859 142.994478 
z
" clip-path="url(#pe5098cceb5)" style="fill: #000080; fill-opacity: 0.5; stroke: #000000; stroke-width: 0.416936; stroke-linejoin: miter"/>
   </g>
   <g id="patch_71">
    <path d="M 335.282825 158.615219 
L 339.591792 158.615219 
L 339.591792 142.994478 
L 335.282825 142.994478 
z
" clip-path="url(#pe5098cceb5)" style="fill: #000080; fill-opacity: 0.5; stroke: #000000; stroke-width: 0.416936; stroke-linejoin: miter"/>
   </g>
   <g id="patch_72">
    <path d="M 339.591792 158.615219 
L 343.900758 158.615219 
L 343.900758 158.615219 
L 339.591792 158.615219 
z
" clip-path="url(#pe5098cceb5)" style="fill: #000080; fill-opacity: 0.5; stroke: #000000; stroke-width: 0.416936; stroke-linejoin: miter"/>
   </g>
   <g id="patch_73">
    <path d="M 343.900758 158.615219 
L 348.209724 158.615219 
L 348.209724 142.994478 
L 343.900758 142.994478 
z
" clip-path="url(#pe5098cceb5)" style="fill: #000080; fill-opacity: 0.5; stroke: #000000; stroke-width: 0.416936; stroke-linejoin: miter"/>
   </g>
   <g id="patch_74">
    <path d="M 348.209724 158.615219 
L 352.518691 158.615219 
L 352.518691 142.994478 
L 348.209724 142.994478 
z
" clip-path="url(#pe5098cceb5)" style="fill: #000080; fill-opacity: 0.5; stroke: #000000; stroke-width: 0.416936; stroke-linejoin: miter"/>
   </g>
   <g id="patch_75">
    <path d="M 352.518691 158.615219 
L 356.827657 158.615219 
L 356.827657 142.994478 
L 352.518691 142.994478 
z
" clip-path="url(#pe5098cceb5)" style="fill: #000080; fill-opacity: 0.5; stroke: #000000; stroke-width: 0.416936; stroke-linejoin: miter"/>
   </g>
   <g id="patch_76">
    <path d="M 356.827657 158.615219 
L 361.136624 158.615219 
L 361.136624 158.615219 
L 356.827657 158.615219 
z
" clip-path="url(#pe5098cceb5)" style="fill: #000080; fill-opacity: 0.5; stroke: #000000; stroke-width: 0.416936; stroke-linejoin: miter"/>
   </g>
   <g id="patch_77">
    <path d="M 361.136624 158.615219 
L 365.44559 158.615219 
L 365.44559 158.615219 
L 361.136624 158.615219 
z
" clip-path="url(#pe5098cceb5)" style="fill: #000080; fill-opacity: 0.5; stroke: #000000; stroke-width: 0.416936; stroke-linejoin: miter"/>
   </g>
   <g id="patch_78">
    <path d="M 365.44559 158.615219 
L 369.754556 158.615219 
L 369.754556 158.615219 
L 365.44559 158.615219 
z
" clip-path="url(#pe5098cceb5)" style="fill: #000080; fill-opacity: 0.5; stroke: #000000; stroke-width: 0.416936; stroke-linejoin: miter"/>
   </g>
   <g id="patch_79">
    <path d="M 369.754556 158.615219 
L 374.063523 158.615219 
L 374.063523 142.994478 
L 369.754556 142.994478 
z
" clip-path="url(#pe5098cceb5)" style="fill: #000080; fill-opacity: 0.5; stroke: #000000; stroke-width: 0.416936; stroke-linejoin: miter"/>
   </g>
   <g id="patch_80">
    <path d="M 59.508977 158.615219 
L 63.817944 158.615219 
L 63.817944 142.994478 
L 59.508977 142.994478 
z
" clip-path="url(#pe5098cceb5)" style="fill: #808080; stroke: #000000; stroke-width: 0.4; stroke-linejoin: miter"/>
   </g>
   <g id="patch_81">
    <path d="M 63.817944 158.615219 
L 68.12691 158.615219 
L 68.12691 158.615219 
L 63.817944 158.615219 
z
" clip-path="url(#pe5098cceb5)" style="fill: #808080; stroke: #000000; stroke-width: 0.4; stroke-linejoin: miter"/>
   </g>
   <g id="patch_82">
    <path d="M 68.12691 158.615219 
L 72.435876 158.615219 
L 72.435876 158.615219 
L 68.12691 158.615219 
z
" clip-path="url(#pe5098cceb5)" style="fill: #808080; stroke: #000000; stroke-width: 0.4; stroke-linejoin: miter"/>
   </g>
   <g id="patch_83">
    <path d="M 72.435876 158.615219 
L 76.744843 158.615219 
L 76.744843 158.615219 
L 72.435876 158.615219 
z
" clip-path="url(#pe5098cceb5)" style="fill: #808080; stroke: #000000; stroke-width: 0.4; stroke-linejoin: miter"/>
   </g>
   <g id="patch_84">
    <path d="M 76.744843 158.615219 
L 81.053809 158.615219 
L 81.053809 142.994478 
L 76.744843 142.994478 
z
" clip-path="url(#pe5098cceb5)" style="fill: #808080; stroke: #000000; stroke-width: 0.4; stroke-linejoin: miter"/>
   </g>
   <g id="patch_85">
    <path d="M 81.053809 158.615219 
L 85.362776 158.615219 
L 85.362776 142.994478 
L 81.053809 142.994478 
z
" clip-path="url(#pe5098cceb5)" style="fill: #808080; stroke: #000000; stroke-width: 0.4; stroke-linejoin: miter"/>
   </g>
   <g id="patch_86">
    <path d="M 85.362776 158.615219 
L 89.671742 158.615219 
L 89.671742 142.994478 
L 85.362776 142.994478 
z
" clip-path="url(#pe5098cceb5)" style="fill: #808080; stroke: #000000; stroke-width: 0.4; stroke-linejoin: miter"/>
   </g>
   <g id="patch_87">
    <path d="M 89.671742 158.615219 
L 93.980708 158.615219 
L 93.980708 158.615219 
L 89.671742 158.615219 
z
" clip-path="url(#pe5098cceb5)" style="fill: #808080; stroke: #000000; stroke-width: 0.4; stroke-linejoin: miter"/>
   </g>
   <g id="patch_88">
    <path d="M 93.980708 158.615219 
L 98.289675 158.615219 
L 98.289675 142.994478 
L 93.980708 142.994478 
z
" clip-path="url(#pe5098cceb5)" style="fill: #808080; stroke: #000000; stroke-width: 0.4; stroke-linejoin: miter"/>
   </g>
   <g id="patch_89">
    <path d="M 98.289675 158.615219 
L 102.598641 158.615219 
L 102.598641 158.615219 
L 98.289675 158.615219 
z
" clip-path="url(#pe5098cceb5)" style="fill: #808080; stroke: #000000; stroke-width: 0.4; stroke-linejoin: miter"/>
   </g>
   <g id="patch_90">
    <path d="M 102.598641 158.615219 
L 106.907607 158.615219 
L 106.907607 158.615219 
L 102.598641 158.615219 
z
" clip-path="url(#pe5098cceb5)" style="fill: #808080; stroke: #000000; stroke-width: 0.4; stroke-linejoin: miter"/>
   </g>
   <g id="patch_91">
    <path d="M 106.907607 158.615219 
L 111.216574 158.615219 
L 111.216574 158.615219 
L 106.907607 158.615219 
z
" clip-path="url(#pe5098cceb5)" style="fill: #808080; stroke: #000000; stroke-width: 0.4; stroke-linejoin: miter"/>
   </g>
   <g id="patch_92">
    <path d="M 111.216574 158.615219 
L 115.52554 158.615219 
L 115.52554 158.615219 
L 111.216574 158.615219 
z
" clip-path="url(#pe5098cceb5)" style="fill: #808080; stroke: #000000; stroke-width: 0.4; stroke-linejoin: miter"/>
   </g>
   <g id="patch_93">
    <path d="M 115.52554 158.615219 
L 119.834507 158.615219 
L 119.834507 142.994478 
L 115.52554 142.994478 
z
" clip-path="url(#pe5098cceb5)" style="fill: #808080; stroke: #000000; stroke-width: 0.4; stroke-linejoin: miter"/>
   </g>
   <g id="patch_94">
    <path d="M 119.834507 158.615219 
L 124.143473 158.615219 
L 124.143473 158.615219 
L 119.834507 158.615219 
z
" clip-path="url(#pe5098cceb5)" style="fill: #808080; stroke: #000000; stroke-width: 0.4; stroke-linejoin: miter"/>
   </g>
   <g id="patch_95">
    <path d="M 124.143473 158.615219 
L 128.452439 158.615219 
L 128.452439 158.615219 
L 124.143473 158.615219 
z
" clip-path="url(#pe5098cceb5)" style="fill: #808080; stroke: #000000; stroke-width: 0.4; stroke-linejoin: miter"/>
   </g>
   <g id="patch_96">
    <path d="M 128.452439 158.615219 
L 132.761406 158.615219 
L 132.761406 142.994478 
L 128.452439 142.994478 
z
" clip-path="url(#pe5098cceb5)" style="fill: #808080; stroke: #000000; stroke-width: 0.4; stroke-linejoin: miter"/>
   </g>
   <g id="patch_97">
    <path d="M 132.761406 158.615219 
L 137.070372 158.615219 
L 137.070372 158.615219 
L 132.761406 158.615219 
z
" clip-path="url(#pe5098cceb5)" style="fill: #808080; stroke: #000000; stroke-width: 0.4; stroke-linejoin: miter"/>
   </g>
   <g id="patch_98">
    <path d="M 137.070372 158.615219 
L 141.379338 158.615219 
L 141.379338 158.615219 
L 137.070372 158.615219 
z
" clip-path="url(#pe5098cceb5)" style="fill: #808080; stroke: #000000; stroke-width: 0.4; stroke-linejoin: miter"/>
   </g>
   <g id="patch_99">
    <path d="M 141.379338 158.615219 
L 145.688305 158.615219 
L 145.688305 127.373737 
L 141.379338 127.373737 
z
" clip-path="url(#pe5098cceb5)" style="fill: #808080; stroke: #000000; stroke-width: 0.4; stroke-linejoin: miter"/>
   </g>
   <g id="patch_100">
    <path d="M 145.688305 158.615219 
L 149.997271 158.615219 
L 149.997271 158.615219 
L 145.688305 158.615219 
z
" clip-path="url(#pe5098cceb5)" style="fill: #808080; stroke: #000000; stroke-width: 0.4; stroke-linejoin: miter"/>
   </g>
   <g id="patch_101">
    <path d="M 149.997271 158.615219 
L 154.306238 158.615219 
L 154.306238 142.994478 
L 149.997271 142.994478 
z
" clip-path="url(#pe5098cceb5)" style="fill: #808080; stroke: #000000; stroke-width: 0.4; stroke-linejoin: miter"/>
   </g>
   <g id="patch_102">
    <path d="M 154.306238 158.615219 
L 158.615204 158.615219 
L 158.615204 18.028552 
L 154.306238 18.028552 
z
" clip-path="url(#pe5098cceb5)" style="fill: #808080; stroke: #000000; stroke-width: 0.4; stroke-linejoin: miter"/>
   </g>
   <g id="patch_103">
    <path d="M 158.615204 158.615219 
L 162.92417 158.615219 
L 162.92417 33.649293 
L 158.615204 33.649293 
z
" clip-path="url(#pe5098cceb5)" style="fill: #808080; stroke: #000000; stroke-width: 0.4; stroke-linejoin: miter"/>
   </g>
   <g id="patch_104">
    <path d="M 162.92417 158.615219 
L 167.233137 158.615219 
L 167.233137 33.649293 
L 162.92417 33.649293 
z
" clip-path="url(#pe5098cceb5)" style="fill: #808080; stroke: #000000; stroke-width: 0.4; stroke-linejoin: miter"/>
   </g>
   <g id="patch_105">
    <path d="M 167.233137 158.615219 
L 171.542103 158.615219 
L 171.542103 111.752997 
L 167.233137 111.752997 
z
" clip-path="url(#pe5098cceb5)" style="fill: #808080; stroke: #000000; stroke-width: 0.4; stroke-linejoin: miter"/>
   </g>
   <g id="patch_106">
    <path d="M 171.542103 158.615219 
L 175.851069 158.615219 
L 175.851069 49.270034 
L 171.542103 49.270034 
z
" clip-path="url(#pe5098cceb5)" style="fill: #808080; stroke: #000000; stroke-width: 0.4; stroke-linejoin: miter"/>
   </g>
   <g id="patch_107">
    <path d="M 175.851069 158.615219 
L 180.160036 158.615219 
L 180.160036 111.752997 
L 175.851069 111.752997 
z
" clip-path="url(#pe5098cceb5)" style="fill: #808080; stroke: #000000; stroke-width: 0.4; stroke-linejoin: miter"/>
   </g>
   <g id="patch_108">
    <path d="M 180.160036 158.615219 
L 184.469002 158.615219 
L 184.469002 142.994478 
L 180.160036 142.994478 
z
" clip-path="url(#pe5098cceb5)" style="fill: #808080; stroke: #000000; stroke-width: 0.4; stroke-linejoin: miter"/>
   </g>
   <g id="patch_109">
    <path d="M 184.469002 158.615219 
L 188.777969 158.615219 
L 188.777969 127.373737 
L 184.469002 127.373737 
z
" clip-path="url(#pe5098cceb5)" style="fill: #808080; stroke: #000000; stroke-width: 0.4; stroke-linejoin: miter"/>
   </g>
   <g id="patch_110">
    <path d="M 188.777969 158.615219 
L 193.086935 158.615219 
L 193.086935 158.615219 
L 188.777969 158.615219 
z
" clip-path="url(#pe5098cceb5)" style="fill: #808080; stroke: #000000; stroke-width: 0.4; stroke-linejoin: miter"/>
   </g>
   <g id="patch_111">
    <path d="M 193.086935 158.615219 
L 197.395901 158.615219 
L 197.395901 127.373737 
L 193.086935 127.373737 
z
" clip-path="url(#pe5098cceb5)" style="fill: #808080; stroke: #000000; stroke-width: 0.4; stroke-linejoin: miter"/>
   </g>
   <g id="patch_112">
    <path d="M 197.395901 158.615219 
L 201.704868 158.615219 
L 201.704868 158.615219 
L 197.395901 158.615219 
z
" clip-path="url(#pe5098cceb5)" style="fill: #808080; stroke: #000000; stroke-width: 0.4; stroke-linejoin: miter"/>
   </g>
   <g id="patch_113">
    <path d="M 201.704868 158.615219 
L 206.013834 158.615219 
L 206.013834 142.994478 
L 201.704868 142.994478 
z
" clip-path="url(#pe5098cceb5)" style="fill: #808080; stroke: #000000; stroke-width: 0.4; stroke-linejoin: miter"/>
   </g>
   <g id="patch_114">
    <path d="M 206.013834 158.615219 
L 210.3228 158.615219 
L 210.3228 158.615219 
L 206.013834 158.615219 
z
" clip-path="url(#pe5098cceb5)" style="fill: #808080; stroke: #000000; stroke-width: 0.4; stroke-linejoin: miter"/>
   </g>
   <g id="patch_115">
    <path d="M 210.3228 158.615219 
L 214.631767 158.615219 
L 214.631767 158.615219 
L 210.3228 158.615219 
z
" clip-path="url(#pe5098cceb5)" style="fill: #808080; stroke: #000000; stroke-width: 0.4; stroke-linejoin: miter"/>
   </g>
   <g id="patch_116">
    <path d="M 214.631767 158.615219 
L 218.940733 158.615219 
L 218.940733 96.132256 
L 214.631767 96.132256 
z
" clip-path="url(#pe5098cceb5)" style="fill: #808080; stroke: #000000; stroke-width: 0.4; stroke-linejoin: miter"/>
   </g>
   <g id="patch_117">
    <path d="M 218.940733 158.615219 
L 223.2497 158.615219 
L 223.2497 142.994478 
L 218.940733 142.994478 
z
" clip-path="url(#pe5098cceb5)" style="fill: #808080; stroke: #000000; stroke-width: 0.4; stroke-linejoin: miter"/>
   </g>
   <g id="patch_118">
    <path d="M 223.2497 158.615219 
L 227.558666 158.615219 
L 227.558666 158.615219 
L 223.2497 158.615219 
z
" clip-path="url(#pe5098cceb5)" style="fill: #808080; stroke: #000000; stroke-width: 0.4; stroke-linejoin: miter"/>
   </g>
   <g id="patch_119">
    <path d="M 227.558666 158.615219 
L 231.867632 158.615219 
L 231.867632 158.615219 
L 227.558666 158.615219 
z
" clip-path="url(#pe5098cceb5)" style="fill: #808080; stroke: #000000; stroke-width: 0.4; stroke-linejoin: miter"/>
   </g>
   <g id="patch_120">
    <path d="M 231.867632 158.615219 
L 236.176599 158.615219 
L 236.176599 96.132256 
L 231.867632 96.132256 
z
" clip-path="url(#pe5098cceb5)" style="fill: #808080; stroke: #000000; stroke-width: 0.4; stroke-linejoin: miter"/>
   </g>
   <g id="patch_121">
    <path d="M 236.176599 158.615219 
L 240.485565 158.615219 
L 240.485565 142.994478 
L 236.176599 142.994478 
z
" clip-path="url(#pe5098cceb5)" style="fill: #808080; stroke: #000000; stroke-width: 0.4; stroke-linejoin: miter"/>
   </g>
   <g id="patch_122">
    <path d="M 240.485565 158.615219 
L 244.794531 158.615219 
L 244.794531 142.994478 
L 240.485565 142.994478 
z
" clip-path="url(#pe5098cceb5)" style="fill: #808080; stroke: #000000; stroke-width: 0.4; stroke-linejoin: miter"/>
   </g>
   <g id="patch_123">
    <path d="M 244.794531 158.615219 
L 249.103498 158.615219 
L 249.103498 158.615219 
L 244.794531 158.615219 
z
" clip-path="url(#pe5098cceb5)" style="fill: #808080; stroke: #000000; stroke-width: 0.4; stroke-linejoin: miter"/>
   </g>
   <g id="patch_124">
    <path d="M 249.103498 158.615219 
L 253.412464 158.615219 
L 253.412464 127.373737 
L 249.103498 127.373737 
z
" clip-path="url(#pe5098cceb5)" style="fill: #808080; stroke: #000000; stroke-width: 0.4; stroke-linejoin: miter"/>
   </g>
   <g id="patch_125">
    <path d="M 253.412464 158.615219 
L 257.721431 158.615219 
L 257.721431 158.615219 
L 253.412464 158.615219 
z
" clip-path="url(#pe5098cceb5)" style="fill: #808080; stroke: #000000; stroke-width: 0.4; stroke-linejoin: miter"/>
   </g>
   <g id="patch_126">
    <path d="M 257.721431 158.615219 
L 262.030397 158.615219 
L 262.030397 111.752997 
L 257.721431 111.752997 
z
" clip-path="url(#pe5098cceb5)" style="fill: #808080; stroke: #000000; stroke-width: 0.4; stroke-linejoin: miter"/>
   </g>
   <g id="patch_127">
    <path d="M 262.030397 158.615219 
L 266.339363 158.615219 
L 266.339363 142.994478 
L 262.030397 142.994478 
z
" clip-path="url(#pe5098cceb5)" style="fill: #808080; stroke: #000000; stroke-width: 0.4; stroke-linejoin: miter"/>
   </g>
   <g id="patch_128">
    <path d="M 266.339363 158.615219 
L 270.64833 158.615219 
L 270.64833 142.994478 
L 266.339363 142.994478 
z
" clip-path="url(#pe5098cceb5)" style="fill: #808080; stroke: #000000; stroke-width: 0.4; stroke-linejoin: miter"/>
   </g>
   <g id="patch_129">
    <path d="M 270.64833 158.615219 
L 274.957296 158.615219 
L 274.957296 158.615219 
L 270.64833 158.615219 
z
" clip-path="url(#pe5098cceb5)" style="fill: #808080; stroke: #000000; stroke-width: 0.4; stroke-linejoin: miter"/>
   </g>
   <g id="patch_130">
    <path d="M 274.957296 158.615219 
L 279.266262 158.615219 
L 279.266262 96.132256 
L 274.957296 96.132256 
z
" clip-path="url(#pe5098cceb5)" style="fill: #808080; stroke: #000000; stroke-width: 0.4; stroke-linejoin: miter"/>
   </g>
   <g id="patch_131">
    <path d="M 279.266262 158.615219 
L 283.575229 158.615219 
L 283.575229 127.373737 
L 279.266262 127.373737 
z
" clip-path="url(#pe5098cceb5)" style="fill: #808080; stroke: #000000; stroke-width: 0.4; stroke-linejoin: miter"/>
   </g>
   <g id="patch_132">
    <path d="M 283.575229 158.615219 
L 287.884195 158.615219 
L 287.884195 127.373737 
L 283.575229 127.373737 
z
" clip-path="url(#pe5098cceb5)" style="fill: #808080; stroke: #000000; stroke-width: 0.4; stroke-linejoin: miter"/>
   </g>
   <g id="patch_133">
    <path d="M 287.884195 158.615219 
L 292.193162 158.615219 
L 292.193162 127.373737 
L 287.884195 127.373737 
z
" clip-path="url(#pe5098cceb5)" style="fill: #808080; stroke: #000000; stroke-width: 0.4; stroke-linejoin: miter"/>
   </g>
   <g id="patch_134">
    <path d="M 292.193162 158.615219 
L 296.502128 158.615219 
L 296.502128 111.752997 
L 292.193162 111.752997 
z
" clip-path="url(#pe5098cceb5)" style="fill: #808080; stroke: #000000; stroke-width: 0.4; stroke-linejoin: miter"/>
   </g>
   <g id="patch_135">
    <path d="M 296.502128 158.615219 
L 300.811094 158.615219 
L 300.811094 142.994478 
L 296.502128 142.994478 
z
" clip-path="url(#pe5098cceb5)" style="fill: #808080; stroke: #000000; stroke-width: 0.4; stroke-linejoin: miter"/>
   </g>
   <g id="patch_136">
    <path d="M 300.811094 158.615219 
L 305.120061 158.615219 
L 305.120061 127.373737 
L 300.811094 127.373737 
z
" clip-path="url(#pe5098cceb5)" style="fill: #808080; stroke: #000000; stroke-width: 0.4; stroke-linejoin: miter"/>
   </g>
   <g id="patch_137">
    <path d="M 305.120061 158.615219 
L 309.429027 158.615219 
L 309.429027 96.132256 
L 305.120061 96.132256 
z
" clip-path="url(#pe5098cceb5)" style="fill: #808080; stroke: #000000; stroke-width: 0.4; stroke-linejoin: miter"/>
   </g>
   <g id="patch_138">
    <path d="M 309.429027 158.615219 
L 313.737993 158.615219 
L 313.737993 111.752997 
L 309.429027 111.752997 
z
" clip-path="url(#pe5098cceb5)" style="fill: #808080; stroke: #000000; stroke-width: 0.4; stroke-linejoin: miter"/>
   </g>
   <g id="patch_139">
    <path d="M 313.737993 158.615219 
L 318.04696 158.615219 
L 318.04696 111.752997 
L 313.737993 111.752997 
z
" clip-path="url(#pe5098cceb5)" style="fill: #808080; stroke: #000000; stroke-width: 0.4; stroke-linejoin: miter"/>
   </g>
   <g id="patch_140">
    <path d="M 318.04696 158.615219 
L 322.355926 158.615219 
L 322.355926 80.511515 
L 318.04696 80.511515 
z
" clip-path="url(#pe5098cceb5)" style="fill: #808080; stroke: #000000; stroke-width: 0.4; stroke-linejoin: miter"/>
   </g>
   <g id="patch_141">
    <path d="M 322.355926 158.615219 
L 326.664893 158.615219 
L 326.664893 111.752997 
L 322.355926 111.752997 
z
" clip-path="url(#pe5098cceb5)" style="fill: #808080; stroke: #000000; stroke-width: 0.4; stroke-linejoin: miter"/>
   </g>
   <g id="patch_142">
    <path d="M 326.664893 158.615219 
L 330.973859 158.615219 
L 330.973859 127.373737 
L 326.664893 127.373737 
z
" clip-path="url(#pe5098cceb5)" style="fill: #808080; stroke: #000000; stroke-width: 0.4; stroke-linejoin: miter"/>
   </g>
   <g id="patch_143">
    <path d="M 330.973859 158.615219 
L 335.282825 158.615219 
L 335.282825 142.994478 
L 330.973859 142.994478 
z
" clip-path="url(#pe5098cceb5)" style="fill: #808080; stroke: #000000; stroke-width: 0.4; stroke-linejoin: miter"/>
   </g>
   <g id="patch_144">
    <path d="M 335.282825 158.615219 
L 339.591792 158.615219 
L 339.591792 142.994478 
L 335.282825 142.994478 
z
" clip-path="url(#pe5098cceb5)" style="fill: #808080; stroke: #000000; stroke-width: 0.4; stroke-linejoin: miter"/>
   </g>
   <g id="patch_145">
    <path d="M 339.591792 158.615219 
L 343.900758 158.615219 
L 343.900758 158.615219 
L 339.591792 158.615219 
z
" clip-path="url(#pe5098cceb5)" style="fill: #808080; stroke: #000000; stroke-width: 0.4; stroke-linejoin: miter"/>
   </g>
   <g id="patch_146">
    <path d="M 343.900758 158.615219 
L 348.209724 158.615219 
L 348.209724 142.994478 
L 343.900758 142.994478 
z
" clip-path="url(#pe5098cceb5)" style="fill: #808080; stroke: #000000; stroke-width: 0.4; stroke-linejoin: miter"/>
   </g>
   <g id="patch_147">
    <path d="M 348.209724 158.615219 
L 352.518691 158.615219 
L 352.518691 142.994478 
L 348.209724 142.994478 
z
" clip-path="url(#pe5098cceb5)" style="fill: #808080; stroke: #000000; stroke-width: 0.4; stroke-linejoin: miter"/>
   </g>
   <g id="patch_148">
    <path d="M 352.518691 158.615219 
L 356.827657 158.615219 
L 356.827657 142.994478 
L 352.518691 142.994478 
z
" clip-path="url(#pe5098cceb5)" style="fill: #808080; stroke: #000000; stroke-width: 0.4; stroke-linejoin: miter"/>
   </g>
   <g id="patch_149">
    <path d="M 356.827657 158.615219 
L 361.136624 158.615219 
L 361.136624 158.615219 
L 356.827657 158.615219 
z
" clip-path="url(#pe5098cceb5)" style="fill: #808080; stroke: #000000; stroke-width: 0.4; stroke-linejoin: miter"/>
   </g>
   <g id="patch_150">
    <path d="M 361.136624 158.615219 
L 365.44559 158.615219 
L 365.44559 158.615219 
L 361.136624 158.615219 
z
" clip-path="url(#pe5098cceb5)" style="fill: #808080; stroke: #000000; stroke-width: 0.4; stroke-linejoin: miter"/>
   </g>
   <g id="patch_151">
    <path d="M 365.44559 158.615219 
L 369.754556 158.615219 
L 369.754556 158.615219 
L 365.44559 158.615219 
z
" clip-path="url(#pe5098cceb5)" style="fill: #808080; stroke: #000000; stroke-width: 0.4; stroke-linejoin: miter"/>
   </g>
   <g id="patch_152">
    <path d="M 369.754556 158.615219 
L 374.063523 158.615219 
L 374.063523 142.994478 
L 369.754556 142.994478 
z
" clip-path="url(#pe5098cceb5)" style="fill: #808080; stroke: #000000; stroke-width: 0.4; stroke-linejoin: miter"/>
   </g>
   <g id="matplotlib.axis_3">
    <g id="ytick_7">
     <g id="line2d_16">
      <defs>
       <path id="m5173e8ad85" d="M 0 0 
L 3.5 0 
" style="stroke: #000000; stroke-width: 0.8"/>
      </defs>
      <g>
       <use xlink:href="#m5173e8ad85" x="389.79125" y="158.615219" style="stroke: #000000; stroke-width: 0.8"/>
      </g>
     </g>
     <g id="text_18">
      <!-- 0 -->
      <g transform="translate(396.79125 162.414437) scale(0.1 -0.1)">
       <use xlink:href="#DejaVuSans-30"/>
      </g>
     </g>
    </g>
    <g id="ytick_8">
     <g id="line2d_17">
      <g>
       <use xlink:href="#m5173e8ad85" x="389.79125" y="127.373737" style="stroke: #000000; stroke-width: 0.8"/>
      </g>
     </g>
     <g id="text_19">
      <!-- 2 -->
      <g transform="translate(396.79125 131.172956) scale(0.1 -0.1)">
       <use xlink:href="#DejaVuSans-32"/>
      </g>
     </g>
    </g>
    <g id="ytick_9">
     <g id="line2d_18">
      <g>
       <use xlink:href="#m5173e8ad85" x="389.79125" y="96.132256" style="stroke: #000000; stroke-width: 0.8"/>
      </g>
     </g>
     <g id="text_20">
      <!-- 4 -->
      <g transform="translate(396.79125 99.931475) scale(0.1 -0.1)">
       <use xlink:href="#DejaVuSans-34"/>
      </g>
     </g>
    </g>
    <g id="ytick_10">
     <g id="line2d_19">
      <g>
       <use xlink:href="#m5173e8ad85" x="389.79125" y="64.890774" style="stroke: #000000; stroke-width: 0.8"/>
      </g>
     </g>
     <g id="text_21">
      <!-- 6 -->
      <g transform="translate(396.79125 68.689993) scale(0.1 -0.1)">
       <use xlink:href="#DejaVuSans-36"/>
      </g>
     </g>
    </g>
    <g id="ytick_11">
     <g id="line2d_20">
      <g>
       <use xlink:href="#m5173e8ad85" x="389.79125" y="33.649293" style="stroke: #000000; stroke-width: 0.8"/>
      </g>
     </g>
     <g id="text_22">
      <!-- 8 -->
      <g transform="translate(396.79125 37.448512) scale(0.1 -0.1)">
       <use xlink:href="#DejaVuSans-38"/>
      </g>
     </g>
    </g>
    <g id="text_23">
     <!-- Number of Studies -->
     <g transform="translate(414.752187 131.438469) rotate(-90) scale(0.1 -0.1)">
      <defs>
       <path id="DejaVuSans-75" d="M 544 1381 
L 544 3500 
L 1119 3500 
L 1119 1403 
Q 1119 906 1312 657 
Q 1506 409 1894 409 
Q 2359 409 2629 706 
Q 2900 1003 2900 1516 
L 2900 3500 
L 3475 3500 
L 3475 0 
L 2900 0 
L 2900 538 
Q 2691 219 2414 64 
Q 2138 -91 1772 -91 
Q 1169 -91 856 284 
Q 544 659 544 1381 
z
M 1991 3584 
L 1991 3584 
z
" transform="scale(0.015625)"/>
       <path id="DejaVuSans-6d" d="M 3328 2828 
Q 3544 3216 3844 3400 
Q 4144 3584 4550 3584 
Q 5097 3584 5394 3201 
Q 5691 2819 5691 2113 
L 5691 0 
L 5113 0 
L 5113 2094 
Q 5113 2597 4934 2840 
Q 4756 3084 4391 3084 
Q 3944 3084 3684 2787 
Q 3425 2491 3425 1978 
L 3425 0 
L 2847 0 
L 2847 2094 
Q 2847 2600 2669 2842 
Q 2491 3084 2119 3084 
Q 1678 3084 1418 2786 
Q 1159 2488 1159 1978 
L 1159 0 
L 581 0 
L 581 3500 
L 1159 3500 
L 1159 2956 
Q 1356 3278 1631 3431 
Q 1906 3584 2284 3584 
Q 2666 3584 2933 3390 
Q 3200 3197 3328 2828 
z
" transform="scale(0.015625)"/>
       <path id="DejaVuSans-62" d="M 3116 1747 
Q 3116 2381 2855 2742 
Q 2594 3103 2138 3103 
Q 1681 3103 1420 2742 
Q 1159 2381 1159 1747 
Q 1159 1113 1420 752 
Q 1681 391 2138 391 
Q 2594 391 2855 752 
Q 3116 1113 3116 1747 
z
M 1159 2969 
Q 1341 3281 1617 3432 
Q 1894 3584 2278 3584 
Q 2916 3584 3314 3078 
Q 3713 2572 3713 1747 
Q 3713 922 3314 415 
Q 2916 -91 2278 -91 
Q 1894 -91 1617 61 
Q 1341 213 1159 525 
L 1159 0 
L 581 0 
L 581 4863 
L 1159 4863 
L 1159 2969 
z
" transform="scale(0.015625)"/>
       <path id="DejaVuSans-53" d="M 3425 4513 
L 3425 3897 
Q 3066 4069 2747 4153 
Q 2428 4238 2131 4238 
Q 1616 4238 1336 4038 
Q 1056 3838 1056 3469 
Q 1056 3159 1242 3001 
Q 1428 2844 1947 2747 
L 2328 2669 
Q 3034 2534 3370 2195 
Q 3706 1856 3706 1288 
Q 3706 609 3251 259 
Q 2797 -91 1919 -91 
Q 1588 -91 1214 -16 
Q 841 59 441 206 
L 441 856 
Q 825 641 1194 531 
Q 1563 422 1919 422 
Q 2459 422 2753 634 
Q 3047 847 3047 1241 
Q 3047 1584 2836 1778 
Q 2625 1972 2144 2069 
L 1759 2144 
Q 1053 2284 737 2584 
Q 422 2884 422 3419 
Q 422 4038 858 4394 
Q 1294 4750 2059 4750 
Q 2388 4750 2728 4690 
Q 3069 4631 3425 4513 
z
" transform="scale(0.015625)"/>
       <path id="DejaVuSans-64" d="M 2906 2969 
L 2906 4863 
L 3481 4863 
L 3481 0 
L 2906 0 
L 2906 525 
Q 2725 213 2448 61 
Q 2172 -91 1784 -91 
Q 1150 -91 751 415 
Q 353 922 353 1747 
Q 353 2572 751 3078 
Q 1150 3584 1784 3584 
Q 2172 3584 2448 3432 
Q 2725 3281 2906 2969 
z
M 947 1747 
Q 947 1113 1208 752 
Q 1469 391 1925 391 
Q 2381 391 2643 752 
Q 2906 1113 2906 1747 
Q 2906 2381 2643 2742 
Q 2381 3103 1925 3103 
Q 1469 3103 1208 2742 
Q 947 2381 947 1747 
z
" transform="scale(0.015625)"/>
      </defs>
      <use xlink:href="#DejaVuSans-4e"/>
      <use xlink:href="#DejaVuSans-75" x="74.804688"/>
      <use xlink:href="#DejaVuSans-6d" x="138.183594"/>
      <use xlink:href="#DejaVuSans-62" x="235.595703"/>
      <use xlink:href="#DejaVuSans-65" x="299.072266"/>
      <use xlink:href="#DejaVuSans-72" x="360.595703"/>
      <use xlink:href="#DejaVuSans-20" x="401.708984"/>
      <use xlink:href="#DejaVuSans-6f" x="433.496094"/>
      <use xlink:href="#DejaVuSans-66" x="494.677734"/>
      <use xlink:href="#DejaVuSans-20" x="529.882812"/>
      <use xlink:href="#DejaVuSans-53" x="561.669922"/>
      <use xlink:href="#DejaVuSans-74" x="625.146484"/>
      <use xlink:href="#DejaVuSans-75" x="664.355469"/>
      <use xlink:href="#DejaVuSans-64" x="727.734375"/>
      <use xlink:href="#DejaVuSans-69" x="791.210938"/>
      <use xlink:href="#DejaVuSans-65" x="818.994141"/>
      <use xlink:href="#DejaVuSans-73" x="880.517578"/>
     </g>
    </g>
   </g>
   <g id="line2d_21">
    <path d="M 59.508977 155.072576 
L 81.638443 152.827267 
L 89.541823 151.784912 
L 94.283852 150.979376 
L 99.02588 149.968685 
L 103.767908 148.691431 
L 108.509937 147.090578 
L 111.671289 145.821029 
L 114.832641 144.379778 
L 117.993993 142.764577 
L 122.736022 140.027366 
L 127.47805 136.957707 
L 133.800754 132.505181 
L 143.284811 125.727333 
L 148.026839 122.664629 
L 151.188192 120.864505 
L 154.349544 119.313563 
L 157.510896 118.05219 
L 160.672248 117.111804 
L 163.8336 116.513219 
L 166.994953 116.265555 
L 170.156305 116.365805 
L 173.317657 116.799064 
L 176.479009 117.539411 
L 179.640361 118.551367 
L 182.801714 119.791837 
L 187.543742 121.974122 
L 193.866446 125.213304 
L 201.769827 129.243386 
L 206.511855 131.410979 
L 211.253884 133.276051 
L 214.415236 134.324091 
L 217.576588 135.206251 
L 220.73794 135.920555 
L 223.899292 136.469509 
L 227.060645 136.859041 
L 231.802673 137.163056 
L 236.544701 137.16094 
L 241.28673 136.888334 
L 246.028758 136.379724 
L 250.770786 135.667288 
L 257.093491 134.453073 
L 263.416195 133.004957 
L 274.480928 130.174504 
L 282.384308 128.20781 
L 288.707013 126.878112 
L 293.449041 126.124175 
L 298.19107 125.648699 
L 301.352422 125.513911 
L 304.513774 125.540658 
L 307.675126 125.738935 
L 310.836478 126.114998 
L 313.997831 126.670962 
L 317.159183 127.404557 
L 320.320535 128.309072 
L 325.062563 129.961126 
L 329.804592 131.91867 
L 334.54662 134.112652 
L 342.450001 138.078323 
L 353.514733 143.658434 
L 359.837438 146.570774 
L 364.579466 148.54035 
L 369.321494 150.299333 
L 374.063523 151.839009 
L 374.063523 151.839009 
" clip-path="url(#pe5098cceb5)" style="fill: none; stroke: #000080; stroke-width: 1.5; stroke-linecap: square"/>
   </g>
   <g id="patch_153">
    <path d="M 43.78125 158.615219 
L 43.78125 10.999219 
" style="fill: none; stroke: #000000; stroke-width: 0.8; stroke-linejoin: miter; stroke-linecap: square"/>
   </g>
   <g id="patch_154">
    <path d="M 389.79125 158.615219 
L 389.79125 10.999219 
" style="fill: none; stroke: #000000; stroke-width: 0.8; stroke-linejoin: miter; stroke-linecap: square"/>
   </g>
   <g id="patch_155">
    <path d="M 43.78125 158.615219 
L 389.79125 158.615219 
" style="fill: none; stroke: #000000; stroke-width: 0.8; stroke-linejoin: miter; stroke-linecap: square"/>
   </g>
   <g id="patch_156">
    <path d="M 43.78125 10.999219 
L 389.79125 10.999219 
" style="fill: none; stroke: #000000; stroke-width: 0.8; stroke-linejoin: miter; stroke-linecap: square"/>
   </g>
  </g>
 </g>
 <defs>
  <clipPath id="pe5098cceb5">
   <rect x="43.78125" y="10.999219" width="346.01" height="147.616"/>
  </clipPath>
 </defs>
</svg>
