<?xml version="1.0" encoding="utf-8" standalone="no"?>
<!DOCTYPE svg PUBLIC "-//W3C//DTD SVG 1.1//EN"
  "http://www.w3.org/Graphics/SVG/1.1/DTD/svg11.dtd">
<svg xmlns:xlink="http://www.w3.org/1999/xlink" width="453.29625pt" height="337.837344pt" viewBox="0 0 453.29625 337.837344" xmlns="http://www.w3.org/2000/svg" version="1.1">
 <metadata>
  <rdf:RDF xmlns:dc="http://purl.org/dc/elements/1.1/" xmlns:cc="http://creativecommons.org/ns#" xmlns:rdf="http://www.w3.org/1999/02/22-rdf-syntax-ns#">
   <cc:Work>
    <dc:type rdf:resource="http://purl.org/dc/dcmitype/StillImage"/>
    <dc:date>2024-01-19T14:08:15.578903</dc:date>
    <dc:format>image/svg+xml</dc:format>
    <dc:creator>
     <cc:Agent>
      <dc:title>Matplotlib v3.7.2, https://matplotlib.org/</dc:title>
     </cc:Agent>
    </dc:creator>
   </cc:Work>
  </rdf:RDF>
 </metadata>
 <defs>
  <style type="text/css">*{stroke-linejoin: round; stroke-linecap: butt}</style>
 </defs>
 <g id="figure_1">
  <g id="patch_1">
   <path d="M 0 337.837344 
L 453.29625 337.837344 
L 453.29625 0 
L 0 0 
z
" style="fill: #ffffff"/>
  </g>
  <g id="axes_1">
   <g id="patch_2">
    <path d="M 30.103125 313.959219 
L 412.693125 313.959219 
L 412.693125 10.999219 
L 30.103125 10.999219 
z
" style="fill: #ffffff"/>
   </g>
   <g id="matplotlib.axis_1">
    <g id="xtick_1">
     <g id="line2d_1">
      <defs>
       <path id="m4ef3149d68" d="M 0 0 
L 0 3.5 
" style="stroke: #000000; stroke-width: 0.8"/>
      </defs>
      <g>
       <use xlink:href="#m4ef3149d68" x="105.867721" y="313.959219" style="stroke: #000000; stroke-width: 0.8"/>
      </g>
     </g>
     <g id="text_1">
      <!-- 20 -->
      <g transform="translate(99.505221 328.557656) scale(0.1 -0.1)">
       <defs>
        <path id="DejaVuSans-32" d="M 1228 531 
L 3431 531 
L 3431 0 
L 469 0 
L 469 531 
Q 828 903 1448 1529 
Q 2069 2156 2228 2338 
Q 2531 2678 2651 2914 
Q 2772 3150 2772 3378 
Q 2772 3750 2511 3984 
Q 2250 4219 1831 4219 
Q 1534 4219 1204 4116 
Q 875 4013 500 3803 
L 500 4441 
Q 881 4594 1212 4672 
Q 1544 4750 1819 4750 
Q 2544 4750 2975 4387 
Q 3406 4025 3406 3419 
Q 3406 3131 3298 2873 
Q 3191 2616 2906 2266 
Q 2828 2175 2409 1742 
Q 1991 1309 1228 531 
z
" transform="scale(0.015625)"/>
        <path id="DejaVuSans-30" d="M 2034 4250 
Q 1547 4250 1301 3770 
Q 1056 3291 1056 2328 
Q 1056 1369 1301 889 
Q 1547 409 2034 409 
Q 2525 409 2770 889 
Q 3016 1369 3016 2328 
Q 3016 3291 2770 3770 
Q 2525 4250 2034 4250 
z
M 2034 4750 
Q 2819 4750 3233 4129 
Q 3647 3509 3647 2328 
Q 3647 1150 3233 529 
Q 2819 -91 2034 -91 
Q 1250 -91 836 529 
Q 422 1150 422 2328 
Q 422 3509 836 4129 
Q 1250 4750 2034 4750 
z
" transform="scale(0.015625)"/>
       </defs>
       <use xlink:href="#DejaVuSans-32"/>
       <use xlink:href="#DejaVuSans-30" x="63.623047"/>
      </g>
     </g>
    </g>
    <g id="xtick_2">
     <g id="line2d_2">
      <g>
       <use xlink:href="#m4ef3149d68" x="189.859291" y="313.959219" style="stroke: #000000; stroke-width: 0.8"/>
      </g>
     </g>
     <g id="text_2">
      <!-- 40 -->
      <g transform="translate(183.496791 328.557656) scale(0.1 -0.1)">
       <defs>
        <path id="DejaVuSans-34" d="M 2419 4116 
L 825 1625 
L 2419 1625 
L 2419 4116 
z
M 2253 4666 
L 3047 4666 
L 3047 1625 
L 3713 1625 
L 3713 1100 
L 3047 1100 
L 3047 0 
L 2419 0 
L 2419 1100 
L 313 1100 
L 313 1709 
L 2253 4666 
z
" transform="scale(0.015625)"/>
       </defs>
       <use xlink:href="#DejaVuSans-34"/>
       <use xlink:href="#DejaVuSans-30" x="63.623047"/>
      </g>
     </g>
    </g>
    <g id="xtick_3">
     <g id="line2d_3">
      <g>
       <use xlink:href="#m4ef3149d68" x="273.85086" y="313.959219" style="stroke: #000000; stroke-width: 0.8"/>
      </g>
     </g>
     <g id="text_3">
      <!-- 60 -->
      <g transform="translate(267.48836 328.557656) scale(0.1 -0.1)">
       <defs>
        <path id="DejaVuSans-36" d="M 2113 2584 
Q 1688 2584 1439 2293 
Q 1191 2003 1191 1497 
Q 1191 994 1439 701 
Q 1688 409 2113 409 
Q 2538 409 2786 701 
Q 3034 994 3034 1497 
Q 3034 2003 2786 2293 
Q 2538 2584 2113 2584 
z
M 3366 4563 
L 3366 3988 
Q 3128 4100 2886 4159 
Q 2644 4219 2406 4219 
Q 1781 4219 1451 3797 
Q 1122 3375 1075 2522 
Q 1259 2794 1537 2939 
Q 1816 3084 2150 3084 
Q 2853 3084 3261 2657 
Q 3669 2231 3669 1497 
Q 3669 778 3244 343 
Q 2819 -91 2113 -91 
Q 1303 -91 875 529 
Q 447 1150 447 2328 
Q 447 3434 972 4092 
Q 1497 4750 2381 4750 
Q 2619 4750 2861 4703 
Q 3103 4656 3366 4563 
z
" transform="scale(0.015625)"/>
       </defs>
       <use xlink:href="#DejaVuSans-36"/>
       <use xlink:href="#DejaVuSans-30" x="63.623047"/>
      </g>
     </g>
    </g>
    <g id="xtick_4">
     <g id="line2d_4">
      <g>
       <use xlink:href="#m4ef3149d68" x="357.84243" y="313.959219" style="stroke: #000000; stroke-width: 0.8"/>
      </g>
     </g>
     <g id="text_4">
      <!-- 80 -->
      <g transform="translate(351.47993 328.557656) scale(0.1 -0.1)">
       <defs>
        <path id="DejaVuSans-38" d="M 2034 2216 
Q 1584 2216 1326 1975 
Q 1069 1734 1069 1313 
Q 1069 891 1326 650 
Q 1584 409 2034 409 
Q 2484 409 2743 651 
Q 3003 894 3003 1313 
Q 3003 1734 2745 1975 
Q 2488 2216 2034 2216 
z
M 1403 2484 
Q 997 2584 770 2862 
Q 544 3141 544 3541 
Q 544 4100 942 4425 
Q 1341 4750 2034 4750 
Q 2731 4750 3128 4425 
Q 3525 4100 3525 3541 
Q 3525 3141 3298 2862 
Q 3072 2584 2669 2484 
Q 3125 2378 3379 2068 
Q 3634 1759 3634 1313 
Q 3634 634 3220 271 
Q 2806 -91 2034 -91 
Q 1263 -91 848 271 
Q 434 634 434 1313 
Q 434 1759 690 2068 
Q 947 2378 1403 2484 
z
M 1172 3481 
Q 1172 3119 1398 2916 
Q 1625 2713 2034 2713 
Q 2441 2713 2670 2916 
Q 2900 3119 2900 3481 
Q 2900 3844 2670 4047 
Q 2441 4250 2034 4250 
Q 1625 4250 1398 4047 
Q 1172 3844 1172 3481 
z
" transform="scale(0.015625)"/>
       </defs>
       <use xlink:href="#DejaVuSans-38"/>
       <use xlink:href="#DejaVuSans-30" x="63.623047"/>
      </g>
     </g>
    </g>
   </g>
   <g id="matplotlib.axis_2">
    <g id="ytick_1">
     <g id="line2d_5">
      <defs>
       <path id="m64a577a1ab" d="M 0 0 
L -3.5 0 
" style="stroke: #000000; stroke-width: 0.8"/>
      </defs>
      <g>
       <use xlink:href="#m64a577a1ab" x="30.103125" y="313.959219" style="stroke: #000000; stroke-width: 0.8"/>
      </g>
     </g>
     <g id="text_5">
      <!-- 0.0 -->
      <g transform="translate(7.2 317.758437) scale(0.1 -0.1)">
       <defs>
        <path id="DejaVuSans-2e" d="M 684 794 
L 1344 794 
L 1344 0 
L 684 0 
L 684 794 
z
" transform="scale(0.015625)"/>
       </defs>
       <use xlink:href="#DejaVuSans-30"/>
       <use xlink:href="#DejaVuSans-2e" x="63.623047"/>
       <use xlink:href="#DejaVuSans-30" x="95.410156"/>
      </g>
     </g>
    </g>
    <g id="ytick_2">
     <g id="line2d_6">
      <g>
       <use xlink:href="#m64a577a1ab" x="30.103125" y="253.367219" style="stroke: #000000; stroke-width: 0.8"/>
      </g>
     </g>
     <g id="text_6">
      <!-- 0.2 -->
      <g transform="translate(7.2 257.166437) scale(0.1 -0.1)">
       <use xlink:href="#DejaVuSans-30"/>
       <use xlink:href="#DejaVuSans-2e" x="63.623047"/>
       <use xlink:href="#DejaVuSans-32" x="95.410156"/>
      </g>
     </g>
    </g>
    <g id="ytick_3">
     <g id="line2d_7">
      <g>
       <use xlink:href="#m64a577a1ab" x="30.103125" y="192.775219" style="stroke: #000000; stroke-width: 0.8"/>
      </g>
     </g>
     <g id="text_7">
      <!-- 0.4 -->
      <g transform="translate(7.2 196.574437) scale(0.1 -0.1)">
       <use xlink:href="#DejaVuSans-30"/>
       <use xlink:href="#DejaVuSans-2e" x="63.623047"/>
       <use xlink:href="#DejaVuSans-34" x="95.410156"/>
      </g>
     </g>
    </g>
    <g id="ytick_4">
     <g id="line2d_8">
      <g>
       <use xlink:href="#m64a577a1ab" x="30.103125" y="132.183219" style="stroke: #000000; stroke-width: 0.8"/>
      </g>
     </g>
     <g id="text_8">
      <!-- 0.6 -->
      <g transform="translate(7.2 135.982437) scale(0.1 -0.1)">
       <use xlink:href="#DejaVuSans-30"/>
       <use xlink:href="#DejaVuSans-2e" x="63.623047"/>
       <use xlink:href="#DejaVuSans-36" x="95.410156"/>
      </g>
     </g>
    </g>
    <g id="ytick_5">
     <g id="line2d_9">
      <g>
       <use xlink:href="#m64a577a1ab" x="30.103125" y="71.591219" style="stroke: #000000; stroke-width: 0.8"/>
      </g>
     </g>
     <g id="text_9">
      <!-- 0.8 -->
      <g transform="translate(7.2 75.390437) scale(0.1 -0.1)">
       <use xlink:href="#DejaVuSans-30"/>
       <use xlink:href="#DejaVuSans-2e" x="63.623047"/>
       <use xlink:href="#DejaVuSans-38" x="95.410156"/>
      </g>
     </g>
    </g>
    <g id="ytick_6">
     <g id="line2d_10">
      <g>
       <use xlink:href="#m64a577a1ab" x="30.103125" y="10.999219" style="stroke: #000000; stroke-width: 0.8"/>
      </g>
     </g>
     <g id="text_10">
      <!-- 1.0 -->
      <g transform="translate(7.2 14.798437) scale(0.1 -0.1)">
       <defs>
        <path id="DejaVuSans-31" d="M 794 531 
L 1825 531 
L 1825 4091 
L 703 3866 
L 703 4441 
L 1819 4666 
L 2450 4666 
L 2450 531 
L 3481 531 
L 3481 0 
L 794 0 
L 794 531 
z
" transform="scale(0.015625)"/>
       </defs>
       <use xlink:href="#DejaVuSans-31"/>
       <use xlink:href="#DejaVuSans-2e" x="63.623047"/>
       <use xlink:href="#DejaVuSans-30" x="95.410156"/>
      </g>
     </g>
    </g>
   </g>
   <g id="patch_3">
    <path d="M 30.103125 313.959219 
L 30.103125 10.999219 
" style="fill: none; stroke: #000000; stroke-width: 0.8; stroke-linejoin: miter; stroke-linecap: square"/>
   </g>
   <g id="patch_4">
    <path d="M 412.693125 313.959219 
L 412.693125 10.999219 
" style="fill: none; stroke: #000000; stroke-width: 0.8; stroke-linejoin: miter; stroke-linecap: square"/>
   </g>
   <g id="patch_5">
    <path d="M 30.103125 313.959219 
L 412.693125 313.959219 
" style="fill: none; stroke: #000000; stroke-width: 0.8; stroke-linejoin: miter; stroke-linecap: square"/>
   </g>
   <g id="patch_6">
    <path d="M 30.103125 10.999219 
L 412.693125 10.999219 
" style="fill: none; stroke: #000000; stroke-width: 0.8; stroke-linejoin: miter; stroke-linecap: square"/>
   </g>
  </g>
  <g id="axes_2">
   <g id="patch_7">
    <path d="M 47.49358 313.959219 
L 52.258088 313.959219 
L 52.258088 285.105885 
L 47.49358 285.105885 
z
" clip-path="url(#p6025d3ef4b)" style="fill: #000080; fill-opacity: 0.5; stroke: #000000; stroke-width: 0.444732; stroke-linejoin: miter"/>
   </g>
   <g id="patch_8">
    <path d="M 52.258088 313.959219 
L 57.022596 313.959219 
L 57.022596 313.959219 
L 52.258088 313.959219 
z
" clip-path="url(#p6025d3ef4b)" style="fill: #000080; fill-opacity: 0.5; stroke: #000000; stroke-width: 0.444732; stroke-linejoin: miter"/>
   </g>
   <g id="patch_9">
    <path d="M 57.022596 313.959219 
L 61.787104 313.959219 
L 61.787104 285.105885 
L 57.022596 285.105885 
z
" clip-path="url(#p6025d3ef4b)" style="fill: #000080; fill-opacity: 0.5; stroke: #000000; stroke-width: 0.444732; stroke-linejoin: miter"/>
   </g>
   <g id="patch_10">
    <path d="M 61.787104 313.959219 
L 66.551612 313.959219 
L 66.551612 285.105885 
L 61.787104 285.105885 
z
" clip-path="url(#p6025d3ef4b)" style="fill: #000080; fill-opacity: 0.5; stroke: #000000; stroke-width: 0.444732; stroke-linejoin: miter"/>
   </g>
   <g id="patch_11">
    <path d="M 66.551612 313.959219 
L 71.31612 313.959219 
L 71.31612 313.959219 
L 66.551612 313.959219 
z
" clip-path="url(#p6025d3ef4b)" style="fill: #000080; fill-opacity: 0.5; stroke: #000000; stroke-width: 0.444732; stroke-linejoin: miter"/>
   </g>
   <g id="patch_12">
    <path d="M 71.31612 313.959219 
L 76.080628 313.959219 
L 76.080628 313.959219 
L 71.31612 313.959219 
z
" clip-path="url(#p6025d3ef4b)" style="fill: #000080; fill-opacity: 0.5; stroke: #000000; stroke-width: 0.444732; stroke-linejoin: miter"/>
   </g>
   <g id="patch_13">
    <path d="M 76.080628 313.959219 
L 80.845136 313.959219 
L 80.845136 313.959219 
L 76.080628 313.959219 
z
" clip-path="url(#p6025d3ef4b)" style="fill: #000080; fill-opacity: 0.5; stroke: #000000; stroke-width: 0.444732; stroke-linejoin: miter"/>
   </g>
   <g id="patch_14">
    <path d="M 80.845136 313.959219 
L 85.609644 313.959219 
L 85.609644 313.959219 
L 80.845136 313.959219 
z
" clip-path="url(#p6025d3ef4b)" style="fill: #000080; fill-opacity: 0.5; stroke: #000000; stroke-width: 0.444732; stroke-linejoin: miter"/>
   </g>
   <g id="patch_15">
    <path d="M 85.609644 313.959219 
L 90.374152 313.959219 
L 90.374152 285.105885 
L 85.609644 285.105885 
z
" clip-path="url(#p6025d3ef4b)" style="fill: #000080; fill-opacity: 0.5; stroke: #000000; stroke-width: 0.444732; stroke-linejoin: miter"/>
   </g>
   <g id="patch_16">
    <path d="M 90.374152 313.959219 
L 95.13866 313.959219 
L 95.13866 313.959219 
L 90.374152 313.959219 
z
" clip-path="url(#p6025d3ef4b)" style="fill: #000080; fill-opacity: 0.5; stroke: #000000; stroke-width: 0.444732; stroke-linejoin: miter"/>
   </g>
   <g id="patch_17">
    <path d="M 95.13866 313.959219 
L 99.903169 313.959219 
L 99.903169 285.105885 
L 95.13866 285.105885 
z
" clip-path="url(#p6025d3ef4b)" style="fill: #000080; fill-opacity: 0.5; stroke: #000000; stroke-width: 0.444732; stroke-linejoin: miter"/>
   </g>
   <g id="patch_18">
    <path d="M 99.903169 313.959219 
L 104.667677 313.959219 
L 104.667677 313.959219 
L 99.903169 313.959219 
z
" clip-path="url(#p6025d3ef4b)" style="fill: #000080; fill-opacity: 0.5; stroke: #000000; stroke-width: 0.444732; stroke-linejoin: miter"/>
   </g>
   <g id="patch_19">
    <path d="M 104.667677 313.959219 
L 109.432185 313.959219 
L 109.432185 313.959219 
L 104.667677 313.959219 
z
" clip-path="url(#p6025d3ef4b)" style="fill: #000080; fill-opacity: 0.5; stroke: #000000; stroke-width: 0.444732; stroke-linejoin: miter"/>
   </g>
   <g id="patch_20">
    <path d="M 109.432185 313.959219 
L 114.196693 313.959219 
L 114.196693 285.105885 
L 109.432185 285.105885 
z
" clip-path="url(#p6025d3ef4b)" style="fill: #000080; fill-opacity: 0.5; stroke: #000000; stroke-width: 0.444732; stroke-linejoin: miter"/>
   </g>
   <g id="patch_21">
    <path d="M 114.196693 313.959219 
L 118.961201 313.959219 
L 118.961201 285.105885 
L 114.196693 285.105885 
z
" clip-path="url(#p6025d3ef4b)" style="fill: #000080; fill-opacity: 0.5; stroke: #000000; stroke-width: 0.444732; stroke-linejoin: miter"/>
   </g>
   <g id="patch_22">
    <path d="M 118.961201 313.959219 
L 123.725709 313.959219 
L 123.725709 285.105885 
L 118.961201 285.105885 
z
" clip-path="url(#p6025d3ef4b)" style="fill: #000080; fill-opacity: 0.5; stroke: #000000; stroke-width: 0.444732; stroke-linejoin: miter"/>
   </g>
   <g id="patch_23">
    <path d="M 123.725709 313.959219 
L 128.490217 313.959219 
L 128.490217 111.985885 
L 123.725709 111.985885 
z
" clip-path="url(#p6025d3ef4b)" style="fill: #000080; fill-opacity: 0.5; stroke: #000000; stroke-width: 0.444732; stroke-linejoin: miter"/>
   </g>
   <g id="patch_24">
    <path d="M 128.490217 313.959219 
L 133.254725 313.959219 
L 133.254725 25.425885 
L 128.490217 25.425885 
z
" clip-path="url(#p6025d3ef4b)" style="fill: #000080; fill-opacity: 0.5; stroke: #000000; stroke-width: 0.444732; stroke-linejoin: miter"/>
   </g>
   <g id="patch_25">
    <path d="M 133.254725 313.959219 
L 138.019233 313.959219 
L 138.019233 140.839219 
L 133.254725 140.839219 
z
" clip-path="url(#p6025d3ef4b)" style="fill: #000080; fill-opacity: 0.5; stroke: #000000; stroke-width: 0.444732; stroke-linejoin: miter"/>
   </g>
   <g id="patch_26">
    <path d="M 138.019233 313.959219 
L 142.783741 313.959219 
L 142.783741 169.692552 
L 138.019233 169.692552 
z
" clip-path="url(#p6025d3ef4b)" style="fill: #000080; fill-opacity: 0.5; stroke: #000000; stroke-width: 0.444732; stroke-linejoin: miter"/>
   </g>
   <g id="patch_27">
    <path d="M 142.783741 313.959219 
L 147.54825 313.959219 
L 147.54825 198.545885 
L 142.783741 198.545885 
z
" clip-path="url(#p6025d3ef4b)" style="fill: #000080; fill-opacity: 0.5; stroke: #000000; stroke-width: 0.444732; stroke-linejoin: miter"/>
   </g>
   <g id="patch_28">
    <path d="M 147.54825 313.959219 
L 152.312758 313.959219 
L 152.312758 256.252552 
L 147.54825 256.252552 
z
" clip-path="url(#p6025d3ef4b)" style="fill: #000080; fill-opacity: 0.5; stroke: #000000; stroke-width: 0.444732; stroke-linejoin: miter"/>
   </g>
   <g id="patch_29">
    <path d="M 152.312758 313.959219 
L 157.077266 313.959219 
L 157.077266 285.105885 
L 152.312758 285.105885 
z
" clip-path="url(#p6025d3ef4b)" style="fill: #000080; fill-opacity: 0.5; stroke: #000000; stroke-width: 0.444732; stroke-linejoin: miter"/>
   </g>
   <g id="patch_30">
    <path d="M 157.077266 313.959219 
L 161.841774 313.959219 
L 161.841774 285.105885 
L 157.077266 285.105885 
z
" clip-path="url(#p6025d3ef4b)" style="fill: #000080; fill-opacity: 0.5; stroke: #000000; stroke-width: 0.444732; stroke-linejoin: miter"/>
   </g>
   <g id="patch_31">
    <path d="M 161.841774 313.959219 
L 166.606282 313.959219 
L 166.606282 313.959219 
L 161.841774 313.959219 
z
" clip-path="url(#p6025d3ef4b)" style="fill: #000080; fill-opacity: 0.5; stroke: #000000; stroke-width: 0.444732; stroke-linejoin: miter"/>
   </g>
   <g id="patch_32">
    <path d="M 166.606282 313.959219 
L 171.37079 313.959219 
L 171.37079 313.959219 
L 166.606282 313.959219 
z
" clip-path="url(#p6025d3ef4b)" style="fill: #000080; fill-opacity: 0.5; stroke: #000000; stroke-width: 0.444732; stroke-linejoin: miter"/>
   </g>
   <g id="patch_33">
    <path d="M 171.37079 313.959219 
L 176.135298 313.959219 
L 176.135298 256.252552 
L 171.37079 256.252552 
z
" clip-path="url(#p6025d3ef4b)" style="fill: #000080; fill-opacity: 0.5; stroke: #000000; stroke-width: 0.444732; stroke-linejoin: miter"/>
   </g>
   <g id="patch_34">
    <path d="M 176.135298 313.959219 
L 180.899806 313.959219 
L 180.899806 313.959219 
L 176.135298 313.959219 
z
" clip-path="url(#p6025d3ef4b)" style="fill: #000080; fill-opacity: 0.5; stroke: #000000; stroke-width: 0.444732; stroke-linejoin: miter"/>
   </g>
   <g id="patch_35">
    <path d="M 180.899806 313.959219 
L 185.664314 313.959219 
L 185.664314 313.959219 
L 180.899806 313.959219 
z
" clip-path="url(#p6025d3ef4b)" style="fill: #000080; fill-opacity: 0.5; stroke: #000000; stroke-width: 0.444732; stroke-linejoin: miter"/>
   </g>
   <g id="patch_36">
    <path d="M 185.664314 313.959219 
L 190.428822 313.959219 
L 190.428822 227.399219 
L 185.664314 227.399219 
z
" clip-path="url(#p6025d3ef4b)" style="fill: #000080; fill-opacity: 0.5; stroke: #000000; stroke-width: 0.444732; stroke-linejoin: miter"/>
   </g>
   <g id="patch_37">
    <path d="M 190.428822 313.959219 
L 195.19333 313.959219 
L 195.19333 285.105885 
L 190.428822 285.105885 
z
" clip-path="url(#p6025d3ef4b)" style="fill: #000080; fill-opacity: 0.5; stroke: #000000; stroke-width: 0.444732; stroke-linejoin: miter"/>
   </g>
   <g id="patch_38">
    <path d="M 195.19333 313.959219 
L 199.957839 313.959219 
L 199.957839 313.959219 
L 195.19333 313.959219 
z
" clip-path="url(#p6025d3ef4b)" style="fill: #000080; fill-opacity: 0.5; stroke: #000000; stroke-width: 0.444732; stroke-linejoin: miter"/>
   </g>
   <g id="patch_39">
    <path d="M 199.957839 313.959219 
L 204.722347 313.959219 
L 204.722347 313.959219 
L 199.957839 313.959219 
z
" clip-path="url(#p6025d3ef4b)" style="fill: #000080; fill-opacity: 0.5; stroke: #000000; stroke-width: 0.444732; stroke-linejoin: miter"/>
   </g>
   <g id="patch_40">
    <path d="M 204.722347 313.959219 
L 209.486855 313.959219 
L 209.486855 227.399219 
L 204.722347 227.399219 
z
" clip-path="url(#p6025d3ef4b)" style="fill: #000080; fill-opacity: 0.5; stroke: #000000; stroke-width: 0.444732; stroke-linejoin: miter"/>
   </g>
   <g id="patch_41">
    <path d="M 209.486855 313.959219 
L 214.251363 313.959219 
L 214.251363 285.105885 
L 209.486855 285.105885 
z
" clip-path="url(#p6025d3ef4b)" style="fill: #000080; fill-opacity: 0.5; stroke: #000000; stroke-width: 0.444732; stroke-linejoin: miter"/>
   </g>
   <g id="patch_42">
    <path d="M 214.251363 313.959219 
L 219.015871 313.959219 
L 219.015871 285.105885 
L 214.251363 285.105885 
z
" clip-path="url(#p6025d3ef4b)" style="fill: #000080; fill-opacity: 0.5; stroke: #000000; stroke-width: 0.444732; stroke-linejoin: miter"/>
   </g>
   <g id="patch_43">
    <path d="M 219.015871 313.959219 
L 223.780379 313.959219 
L 223.780379 285.105885 
L 219.015871 285.105885 
z
" clip-path="url(#p6025d3ef4b)" style="fill: #000080; fill-opacity: 0.5; stroke: #000000; stroke-width: 0.444732; stroke-linejoin: miter"/>
   </g>
   <g id="patch_44">
    <path d="M 223.780379 313.959219 
L 228.544887 313.959219 
L 228.544887 313.959219 
L 223.780379 313.959219 
z
" clip-path="url(#p6025d3ef4b)" style="fill: #000080; fill-opacity: 0.5; stroke: #000000; stroke-width: 0.444732; stroke-linejoin: miter"/>
   </g>
   <g id="patch_45">
    <path d="M 228.544887 313.959219 
L 233.309395 313.959219 
L 233.309395 227.399219 
L 228.544887 227.399219 
z
" clip-path="url(#p6025d3ef4b)" style="fill: #000080; fill-opacity: 0.5; stroke: #000000; stroke-width: 0.444732; stroke-linejoin: miter"/>
   </g>
   <g id="patch_46">
    <path d="M 233.309395 313.959219 
L 238.073903 313.959219 
L 238.073903 313.959219 
L 233.309395 313.959219 
z
" clip-path="url(#p6025d3ef4b)" style="fill: #000080; fill-opacity: 0.5; stroke: #000000; stroke-width: 0.444732; stroke-linejoin: miter"/>
   </g>
   <g id="patch_47">
    <path d="M 238.073903 313.959219 
L 242.838411 313.959219 
L 242.838411 285.105885 
L 238.073903 285.105885 
z
" clip-path="url(#p6025d3ef4b)" style="fill: #000080; fill-opacity: 0.5; stroke: #000000; stroke-width: 0.444732; stroke-linejoin: miter"/>
   </g>
   <g id="patch_48">
    <path d="M 242.838411 313.959219 
L 247.60292 313.959219 
L 247.60292 313.959219 
L 242.838411 313.959219 
z
" clip-path="url(#p6025d3ef4b)" style="fill: #000080; fill-opacity: 0.5; stroke: #000000; stroke-width: 0.444732; stroke-linejoin: miter"/>
   </g>
   <g id="patch_49">
    <path d="M 247.60292 313.959219 
L 252.367428 313.959219 
L 252.367428 198.545885 
L 247.60292 198.545885 
z
" clip-path="url(#p6025d3ef4b)" style="fill: #000080; fill-opacity: 0.5; stroke: #000000; stroke-width: 0.444732; stroke-linejoin: miter"/>
   </g>
   <g id="patch_50">
    <path d="M 252.367428 313.959219 
L 257.131936 313.959219 
L 257.131936 227.399219 
L 252.367428 227.399219 
z
" clip-path="url(#p6025d3ef4b)" style="fill: #000080; fill-opacity: 0.5; stroke: #000000; stroke-width: 0.444732; stroke-linejoin: miter"/>
   </g>
   <g id="patch_51">
    <path d="M 257.131936 313.959219 
L 261.896444 313.959219 
L 261.896444 285.105885 
L 257.131936 285.105885 
z
" clip-path="url(#p6025d3ef4b)" style="fill: #000080; fill-opacity: 0.5; stroke: #000000; stroke-width: 0.444732; stroke-linejoin: miter"/>
   </g>
   <g id="patch_52">
    <path d="M 261.896444 313.959219 
L 266.660952 313.959219 
L 266.660952 256.252552 
L 261.896444 256.252552 
z
" clip-path="url(#p6025d3ef4b)" style="fill: #000080; fill-opacity: 0.5; stroke: #000000; stroke-width: 0.444732; stroke-linejoin: miter"/>
   </g>
   <g id="patch_53">
    <path d="M 266.660952 313.959219 
L 271.42546 313.959219 
L 271.42546 256.252552 
L 266.660952 256.252552 
z
" clip-path="url(#p6025d3ef4b)" style="fill: #000080; fill-opacity: 0.5; stroke: #000000; stroke-width: 0.444732; stroke-linejoin: miter"/>
   </g>
   <g id="patch_54">
    <path d="M 271.42546 313.959219 
L 276.189968 313.959219 
L 276.189968 285.105885 
L 271.42546 285.105885 
z
" clip-path="url(#p6025d3ef4b)" style="fill: #000080; fill-opacity: 0.5; stroke: #000000; stroke-width: 0.444732; stroke-linejoin: miter"/>
   </g>
   <g id="patch_55">
    <path d="M 276.189968 313.959219 
L 280.954476 313.959219 
L 280.954476 313.959219 
L 276.189968 313.959219 
z
" clip-path="url(#p6025d3ef4b)" style="fill: #000080; fill-opacity: 0.5; stroke: #000000; stroke-width: 0.444732; stroke-linejoin: miter"/>
   </g>
   <g id="patch_56">
    <path d="M 280.954476 313.959219 
L 285.718984 313.959219 
L 285.718984 227.399219 
L 280.954476 227.399219 
z
" clip-path="url(#p6025d3ef4b)" style="fill: #000080; fill-opacity: 0.5; stroke: #000000; stroke-width: 0.444732; stroke-linejoin: miter"/>
   </g>
   <g id="patch_57">
    <path d="M 285.718984 313.959219 
L 290.483492 313.959219 
L 290.483492 256.252552 
L 285.718984 256.252552 
z
" clip-path="url(#p6025d3ef4b)" style="fill: #000080; fill-opacity: 0.5; stroke: #000000; stroke-width: 0.444732; stroke-linejoin: miter"/>
   </g>
   <g id="patch_58">
    <path d="M 290.483492 313.959219 
L 295.248 313.959219 
L 295.248 256.252552 
L 290.483492 256.252552 
z
" clip-path="url(#p6025d3ef4b)" style="fill: #000080; fill-opacity: 0.5; stroke: #000000; stroke-width: 0.444732; stroke-linejoin: miter"/>
   </g>
   <g id="patch_59">
    <path d="M 295.248 313.959219 
L 300.012509 313.959219 
L 300.012509 227.399219 
L 295.248 227.399219 
z
" clip-path="url(#p6025d3ef4b)" style="fill: #000080; fill-opacity: 0.5; stroke: #000000; stroke-width: 0.444732; stroke-linejoin: miter"/>
   </g>
   <g id="patch_60">
    <path d="M 300.012509 313.959219 
L 304.777017 313.959219 
L 304.777017 227.399219 
L 300.012509 227.399219 
z
" clip-path="url(#p6025d3ef4b)" style="fill: #000080; fill-opacity: 0.5; stroke: #000000; stroke-width: 0.444732; stroke-linejoin: miter"/>
   </g>
   <g id="patch_61">
    <path d="M 304.777017 313.959219 
L 309.541525 313.959219 
L 309.541525 256.252552 
L 304.777017 256.252552 
z
" clip-path="url(#p6025d3ef4b)" style="fill: #000080; fill-opacity: 0.5; stroke: #000000; stroke-width: 0.444732; stroke-linejoin: miter"/>
   </g>
   <g id="patch_62">
    <path d="M 309.541525 313.959219 
L 314.306033 313.959219 
L 314.306033 285.105885 
L 309.541525 285.105885 
z
" clip-path="url(#p6025d3ef4b)" style="fill: #000080; fill-opacity: 0.5; stroke: #000000; stroke-width: 0.444732; stroke-linejoin: miter"/>
   </g>
   <g id="patch_63">
    <path d="M 314.306033 313.959219 
L 319.070541 313.959219 
L 319.070541 313.959219 
L 314.306033 313.959219 
z
" clip-path="url(#p6025d3ef4b)" style="fill: #000080; fill-opacity: 0.5; stroke: #000000; stroke-width: 0.444732; stroke-linejoin: miter"/>
   </g>
   <g id="patch_64">
    <path d="M 319.070541 313.959219 
L 323.835049 313.959219 
L 323.835049 285.105885 
L 319.070541 285.105885 
z
" clip-path="url(#p6025d3ef4b)" style="fill: #000080; fill-opacity: 0.5; stroke: #000000; stroke-width: 0.444732; stroke-linejoin: miter"/>
   </g>
   <g id="patch_65">
    <path d="M 323.835049 313.959219 
L 328.599557 313.959219 
L 328.599557 285.105885 
L 323.835049 285.105885 
z
" clip-path="url(#p6025d3ef4b)" style="fill: #000080; fill-opacity: 0.5; stroke: #000000; stroke-width: 0.444732; stroke-linejoin: miter"/>
   </g>
   <g id="patch_66">
    <path d="M 328.599557 313.959219 
L 333.364065 313.959219 
L 333.364065 285.105885 
L 328.599557 285.105885 
z
" clip-path="url(#p6025d3ef4b)" style="fill: #000080; fill-opacity: 0.5; stroke: #000000; stroke-width: 0.444732; stroke-linejoin: miter"/>
   </g>
   <g id="patch_67">
    <path d="M 333.364065 313.959219 
L 338.128573 313.959219 
L 338.128573 313.959219 
L 333.364065 313.959219 
z
" clip-path="url(#p6025d3ef4b)" style="fill: #000080; fill-opacity: 0.5; stroke: #000000; stroke-width: 0.444732; stroke-linejoin: miter"/>
   </g>
   <g id="patch_68">
    <path d="M 338.128573 313.959219 
L 342.893081 313.959219 
L 342.893081 313.959219 
L 338.128573 313.959219 
z
" clip-path="url(#p6025d3ef4b)" style="fill: #000080; fill-opacity: 0.5; stroke: #000000; stroke-width: 0.444732; stroke-linejoin: miter"/>
   </g>
   <g id="patch_69">
    <path d="M 342.893081 313.959219 
L 347.65759 313.959219 
L 347.65759 313.959219 
L 342.893081 313.959219 
z
" clip-path="url(#p6025d3ef4b)" style="fill: #000080; fill-opacity: 0.5; stroke: #000000; stroke-width: 0.444732; stroke-linejoin: miter"/>
   </g>
   <g id="patch_70">
    <path d="M 347.65759 313.959219 
L 352.422098 313.959219 
L 352.422098 285.105885 
L 347.65759 285.105885 
z
" clip-path="url(#p6025d3ef4b)" style="fill: #000080; fill-opacity: 0.5; stroke: #000000; stroke-width: 0.444732; stroke-linejoin: miter"/>
   </g>
   <g id="patch_71">
    <path d="M 352.422098 313.959219 
L 357.186606 313.959219 
L 357.186606 313.959219 
L 352.422098 313.959219 
z
" clip-path="url(#p6025d3ef4b)" style="fill: #000080; fill-opacity: 0.5; stroke: #000000; stroke-width: 0.444732; stroke-linejoin: miter"/>
   </g>
   <g id="patch_72">
    <path d="M 357.186606 313.959219 
L 361.951114 313.959219 
L 361.951114 313.959219 
L 357.186606 313.959219 
z
" clip-path="url(#p6025d3ef4b)" style="fill: #000080; fill-opacity: 0.5; stroke: #000000; stroke-width: 0.444732; stroke-linejoin: miter"/>
   </g>
   <g id="patch_73">
    <path d="M 361.951114 313.959219 
L 366.715622 313.959219 
L 366.715622 313.959219 
L 361.951114 313.959219 
z
" clip-path="url(#p6025d3ef4b)" style="fill: #000080; fill-opacity: 0.5; stroke: #000000; stroke-width: 0.444732; stroke-linejoin: miter"/>
   </g>
   <g id="patch_74">
    <path d="M 366.715622 313.959219 
L 371.48013 313.959219 
L 371.48013 313.959219 
L 366.715622 313.959219 
z
" clip-path="url(#p6025d3ef4b)" style="fill: #000080; fill-opacity: 0.5; stroke: #000000; stroke-width: 0.444732; stroke-linejoin: miter"/>
   </g>
   <g id="patch_75">
    <path d="M 371.48013 313.959219 
L 376.244638 313.959219 
L 376.244638 313.959219 
L 371.48013 313.959219 
z
" clip-path="url(#p6025d3ef4b)" style="fill: #000080; fill-opacity: 0.5; stroke: #000000; stroke-width: 0.444732; stroke-linejoin: miter"/>
   </g>
   <g id="patch_76">
    <path d="M 376.244638 313.959219 
L 381.009146 313.959219 
L 381.009146 313.959219 
L 376.244638 313.959219 
z
" clip-path="url(#p6025d3ef4b)" style="fill: #000080; fill-opacity: 0.5; stroke: #000000; stroke-width: 0.444732; stroke-linejoin: miter"/>
   </g>
   <g id="patch_77">
    <path d="M 381.009146 313.959219 
L 385.773654 313.959219 
L 385.773654 313.959219 
L 381.009146 313.959219 
z
" clip-path="url(#p6025d3ef4b)" style="fill: #000080; fill-opacity: 0.5; stroke: #000000; stroke-width: 0.444732; stroke-linejoin: miter"/>
   </g>
   <g id="patch_78">
    <path d="M 385.773654 313.959219 
L 390.538162 313.959219 
L 390.538162 313.959219 
L 385.773654 313.959219 
z
" clip-path="url(#p6025d3ef4b)" style="fill: #000080; fill-opacity: 0.5; stroke: #000000; stroke-width: 0.444732; stroke-linejoin: miter"/>
   </g>
   <g id="patch_79">
    <path d="M 390.538162 313.959219 
L 395.30267 313.959219 
L 395.30267 256.252552 
L 390.538162 256.252552 
z
" clip-path="url(#p6025d3ef4b)" style="fill: #000080; fill-opacity: 0.5; stroke: #000000; stroke-width: 0.444732; stroke-linejoin: miter"/>
   </g>
   <g id="patch_80">
    <path d="M 47.49358 313.959219 
L 52.258088 313.959219 
L 52.258088 285.105885 
L 47.49358 285.105885 
z
" clip-path="url(#p6025d3ef4b)" style="fill: #808080; stroke: #000000; stroke-width: 0.4; stroke-linejoin: miter"/>
   </g>
   <g id="patch_81">
    <path d="M 52.258088 313.959219 
L 57.022596 313.959219 
L 57.022596 313.959219 
L 52.258088 313.959219 
z
" clip-path="url(#p6025d3ef4b)" style="fill: #808080; stroke: #000000; stroke-width: 0.4; stroke-linejoin: miter"/>
   </g>
   <g id="patch_82">
    <path d="M 57.022596 313.959219 
L 61.787104 313.959219 
L 61.787104 285.105885 
L 57.022596 285.105885 
z
" clip-path="url(#p6025d3ef4b)" style="fill: #808080; stroke: #000000; stroke-width: 0.4; stroke-linejoin: miter"/>
   </g>
   <g id="patch_83">
    <path d="M 61.787104 313.959219 
L 66.551612 313.959219 
L 66.551612 285.105885 
L 61.787104 285.105885 
z
" clip-path="url(#p6025d3ef4b)" style="fill: #808080; stroke: #000000; stroke-width: 0.4; stroke-linejoin: miter"/>
   </g>
   <g id="patch_84">
    <path d="M 66.551612 313.959219 
L 71.31612 313.959219 
L 71.31612 313.959219 
L 66.551612 313.959219 
z
" clip-path="url(#p6025d3ef4b)" style="fill: #808080; stroke: #000000; stroke-width: 0.4; stroke-linejoin: miter"/>
   </g>
   <g id="patch_85">
    <path d="M 71.31612 313.959219 
L 76.080628 313.959219 
L 76.080628 313.959219 
L 71.31612 313.959219 
z
" clip-path="url(#p6025d3ef4b)" style="fill: #808080; stroke: #000000; stroke-width: 0.4; stroke-linejoin: miter"/>
   </g>
   <g id="patch_86">
    <path d="M 76.080628 313.959219 
L 80.845136 313.959219 
L 80.845136 313.959219 
L 76.080628 313.959219 
z
" clip-path="url(#p6025d3ef4b)" style="fill: #808080; stroke: #000000; stroke-width: 0.4; stroke-linejoin: miter"/>
   </g>
   <g id="patch_87">
    <path d="M 80.845136 313.959219 
L 85.609644 313.959219 
L 85.609644 313.959219 
L 80.845136 313.959219 
z
" clip-path="url(#p6025d3ef4b)" style="fill: #808080; stroke: #000000; stroke-width: 0.4; stroke-linejoin: miter"/>
   </g>
   <g id="patch_88">
    <path d="M 85.609644 313.959219 
L 90.374152 313.959219 
L 90.374152 285.105885 
L 85.609644 285.105885 
z
" clip-path="url(#p6025d3ef4b)" style="fill: #808080; stroke: #000000; stroke-width: 0.4; stroke-linejoin: miter"/>
   </g>
   <g id="patch_89">
    <path d="M 90.374152 313.959219 
L 95.13866 313.959219 
L 95.13866 313.959219 
L 90.374152 313.959219 
z
" clip-path="url(#p6025d3ef4b)" style="fill: #808080; stroke: #000000; stroke-width: 0.4; stroke-linejoin: miter"/>
   </g>
   <g id="patch_90">
    <path d="M 95.13866 313.959219 
L 99.903169 313.959219 
L 99.903169 285.105885 
L 95.13866 285.105885 
z
" clip-path="url(#p6025d3ef4b)" style="fill: #808080; stroke: #000000; stroke-width: 0.4; stroke-linejoin: miter"/>
   </g>
   <g id="patch_91">
    <path d="M 99.903169 313.959219 
L 104.667677 313.959219 
L 104.667677 313.959219 
L 99.903169 313.959219 
z
" clip-path="url(#p6025d3ef4b)" style="fill: #808080; stroke: #000000; stroke-width: 0.4; stroke-linejoin: miter"/>
   </g>
   <g id="patch_92">
    <path d="M 104.667677 313.959219 
L 109.432185 313.959219 
L 109.432185 313.959219 
L 104.667677 313.959219 
z
" clip-path="url(#p6025d3ef4b)" style="fill: #808080; stroke: #000000; stroke-width: 0.4; stroke-linejoin: miter"/>
   </g>
   <g id="patch_93">
    <path d="M 109.432185 313.959219 
L 114.196693 313.959219 
L 114.196693 285.105885 
L 109.432185 285.105885 
z
" clip-path="url(#p6025d3ef4b)" style="fill: #808080; stroke: #000000; stroke-width: 0.4; stroke-linejoin: miter"/>
   </g>
   <g id="patch_94">
    <path d="M 114.196693 313.959219 
L 118.961201 313.959219 
L 118.961201 285.105885 
L 114.196693 285.105885 
z
" clip-path="url(#p6025d3ef4b)" style="fill: #808080; stroke: #000000; stroke-width: 0.4; stroke-linejoin: miter"/>
   </g>
   <g id="patch_95">
    <path d="M 118.961201 313.959219 
L 123.725709 313.959219 
L 123.725709 285.105885 
L 118.961201 285.105885 
z
" clip-path="url(#p6025d3ef4b)" style="fill: #808080; stroke: #000000; stroke-width: 0.4; stroke-linejoin: miter"/>
   </g>
   <g id="patch_96">
    <path d="M 123.725709 313.959219 
L 128.490217 313.959219 
L 128.490217 111.985885 
L 123.725709 111.985885 
z
" clip-path="url(#p6025d3ef4b)" style="fill: #808080; stroke: #000000; stroke-width: 0.4; stroke-linejoin: miter"/>
   </g>
   <g id="patch_97">
    <path d="M 128.490217 313.959219 
L 133.254725 313.959219 
L 133.254725 25.425885 
L 128.490217 25.425885 
z
" clip-path="url(#p6025d3ef4b)" style="fill: #808080; stroke: #000000; stroke-width: 0.4; stroke-linejoin: miter"/>
   </g>
   <g id="patch_98">
    <path d="M 133.254725 313.959219 
L 138.019233 313.959219 
L 138.019233 140.839219 
L 133.254725 140.839219 
z
" clip-path="url(#p6025d3ef4b)" style="fill: #808080; stroke: #000000; stroke-width: 0.4; stroke-linejoin: miter"/>
   </g>
   <g id="patch_99">
    <path d="M 138.019233 313.959219 
L 142.783741 313.959219 
L 142.783741 169.692552 
L 138.019233 169.692552 
z
" clip-path="url(#p6025d3ef4b)" style="fill: #808080; stroke: #000000; stroke-width: 0.4; stroke-linejoin: miter"/>
   </g>
   <g id="patch_100">
    <path d="M 142.783741 313.959219 
L 147.54825 313.959219 
L 147.54825 198.545885 
L 142.783741 198.545885 
z
" clip-path="url(#p6025d3ef4b)" style="fill: #808080; stroke: #000000; stroke-width: 0.4; stroke-linejoin: miter"/>
   </g>
   <g id="patch_101">
    <path d="M 147.54825 313.959219 
L 152.312758 313.959219 
L 152.312758 256.252552 
L 147.54825 256.252552 
z
" clip-path="url(#p6025d3ef4b)" style="fill: #808080; stroke: #000000; stroke-width: 0.4; stroke-linejoin: miter"/>
   </g>
   <g id="patch_102">
    <path d="M 152.312758 313.959219 
L 157.077266 313.959219 
L 157.077266 285.105885 
L 152.312758 285.105885 
z
" clip-path="url(#p6025d3ef4b)" style="fill: #808080; stroke: #000000; stroke-width: 0.4; stroke-linejoin: miter"/>
   </g>
   <g id="patch_103">
    <path d="M 157.077266 313.959219 
L 161.841774 313.959219 
L 161.841774 285.105885 
L 157.077266 285.105885 
z
" clip-path="url(#p6025d3ef4b)" style="fill: #808080; stroke: #000000; stroke-width: 0.4; stroke-linejoin: miter"/>
   </g>
   <g id="patch_104">
    <path d="M 161.841774 313.959219 
L 166.606282 313.959219 
L 166.606282 313.959219 
L 161.841774 313.959219 
z
" clip-path="url(#p6025d3ef4b)" style="fill: #808080; stroke: #000000; stroke-width: 0.4; stroke-linejoin: miter"/>
   </g>
   <g id="patch_105">
    <path d="M 166.606282 313.959219 
L 171.37079 313.959219 
L 171.37079 313.959219 
L 166.606282 313.959219 
z
" clip-path="url(#p6025d3ef4b)" style="fill: #808080; stroke: #000000; stroke-width: 0.4; stroke-linejoin: miter"/>
   </g>
   <g id="patch_106">
    <path d="M 171.37079 313.959219 
L 176.135298 313.959219 
L 176.135298 256.252552 
L 171.37079 256.252552 
z
" clip-path="url(#p6025d3ef4b)" style="fill: #808080; stroke: #000000; stroke-width: 0.4; stroke-linejoin: miter"/>
   </g>
   <g id="patch_107">
    <path d="M 176.135298 313.959219 
L 180.899806 313.959219 
L 180.899806 313.959219 
L 176.135298 313.959219 
z
" clip-path="url(#p6025d3ef4b)" style="fill: #808080; stroke: #000000; stroke-width: 0.4; stroke-linejoin: miter"/>
   </g>
   <g id="patch_108">
    <path d="M 180.899806 313.959219 
L 185.664314 313.959219 
L 185.664314 313.959219 
L 180.899806 313.959219 
z
" clip-path="url(#p6025d3ef4b)" style="fill: #808080; stroke: #000000; stroke-width: 0.4; stroke-linejoin: miter"/>
   </g>
   <g id="patch_109">
    <path d="M 185.664314 313.959219 
L 190.428822 313.959219 
L 190.428822 227.399219 
L 185.664314 227.399219 
z
" clip-path="url(#p6025d3ef4b)" style="fill: #808080; stroke: #000000; stroke-width: 0.4; stroke-linejoin: miter"/>
   </g>
   <g id="patch_110">
    <path d="M 190.428822 313.959219 
L 195.19333 313.959219 
L 195.19333 285.105885 
L 190.428822 285.105885 
z
" clip-path="url(#p6025d3ef4b)" style="fill: #808080; stroke: #000000; stroke-width: 0.4; stroke-linejoin: miter"/>
   </g>
   <g id="patch_111">
    <path d="M 195.19333 313.959219 
L 199.957839 313.959219 
L 199.957839 313.959219 
L 195.19333 313.959219 
z
" clip-path="url(#p6025d3ef4b)" style="fill: #808080; stroke: #000000; stroke-width: 0.4; stroke-linejoin: miter"/>
   </g>
   <g id="patch_112">
    <path d="M 199.957839 313.959219 
L 204.722347 313.959219 
L 204.722347 313.959219 
L 199.957839 313.959219 
z
" clip-path="url(#p6025d3ef4b)" style="fill: #808080; stroke: #000000; stroke-width: 0.4; stroke-linejoin: miter"/>
   </g>
   <g id="patch_113">
    <path d="M 204.722347 313.959219 
L 209.486855 313.959219 
L 209.486855 227.399219 
L 204.722347 227.399219 
z
" clip-path="url(#p6025d3ef4b)" style="fill: #808080; stroke: #000000; stroke-width: 0.4; stroke-linejoin: miter"/>
   </g>
   <g id="patch_114">
    <path d="M 209.486855 313.959219 
L 214.251363 313.959219 
L 214.251363 285.105885 
L 209.486855 285.105885 
z
" clip-path="url(#p6025d3ef4b)" style="fill: #808080; stroke: #000000; stroke-width: 0.4; stroke-linejoin: miter"/>
   </g>
   <g id="patch_115">
    <path d="M 214.251363 313.959219 
L 219.015871 313.959219 
L 219.015871 285.105885 
L 214.251363 285.105885 
z
" clip-path="url(#p6025d3ef4b)" style="fill: #808080; stroke: #000000; stroke-width: 0.4; stroke-linejoin: miter"/>
   </g>
   <g id="patch_116">
    <path d="M 219.015871 313.959219 
L 223.780379 313.959219 
L 223.780379 285.105885 
L 219.015871 285.105885 
z
" clip-path="url(#p6025d3ef4b)" style="fill: #808080; stroke: #000000; stroke-width: 0.4; stroke-linejoin: miter"/>
   </g>
   <g id="patch_117">
    <path d="M 223.780379 313.959219 
L 228.544887 313.959219 
L 228.544887 313.959219 
L 223.780379 313.959219 
z
" clip-path="url(#p6025d3ef4b)" style="fill: #808080; stroke: #000000; stroke-width: 0.4; stroke-linejoin: miter"/>
   </g>
   <g id="patch_118">
    <path d="M 228.544887 313.959219 
L 233.309395 313.959219 
L 233.309395 227.399219 
L 228.544887 227.399219 
z
" clip-path="url(#p6025d3ef4b)" style="fill: #808080; stroke: #000000; stroke-width: 0.4; stroke-linejoin: miter"/>
   </g>
   <g id="patch_119">
    <path d="M 233.309395 313.959219 
L 238.073903 313.959219 
L 238.073903 313.959219 
L 233.309395 313.959219 
z
" clip-path="url(#p6025d3ef4b)" style="fill: #808080; stroke: #000000; stroke-width: 0.4; stroke-linejoin: miter"/>
   </g>
   <g id="patch_120">
    <path d="M 238.073903 313.959219 
L 242.838411 313.959219 
L 242.838411 285.105885 
L 238.073903 285.105885 
z
" clip-path="url(#p6025d3ef4b)" style="fill: #808080; stroke: #000000; stroke-width: 0.4; stroke-linejoin: miter"/>
   </g>
   <g id="patch_121">
    <path d="M 242.838411 313.959219 
L 247.60292 313.959219 
L 247.60292 313.959219 
L 242.838411 313.959219 
z
" clip-path="url(#p6025d3ef4b)" style="fill: #808080; stroke: #000000; stroke-width: 0.4; stroke-linejoin: miter"/>
   </g>
   <g id="patch_122">
    <path d="M 247.60292 313.959219 
L 252.367428 313.959219 
L 252.367428 198.545885 
L 247.60292 198.545885 
z
" clip-path="url(#p6025d3ef4b)" style="fill: #808080; stroke: #000000; stroke-width: 0.4; stroke-linejoin: miter"/>
   </g>
   <g id="patch_123">
    <path d="M 252.367428 313.959219 
L 257.131936 313.959219 
L 257.131936 227.399219 
L 252.367428 227.399219 
z
" clip-path="url(#p6025d3ef4b)" style="fill: #808080; stroke: #000000; stroke-width: 0.4; stroke-linejoin: miter"/>
   </g>
   <g id="patch_124">
    <path d="M 257.131936 313.959219 
L 261.896444 313.959219 
L 261.896444 285.105885 
L 257.131936 285.105885 
z
" clip-path="url(#p6025d3ef4b)" style="fill: #808080; stroke: #000000; stroke-width: 0.4; stroke-linejoin: miter"/>
   </g>
   <g id="patch_125">
    <path d="M 261.896444 313.959219 
L 266.660952 313.959219 
L 266.660952 256.252552 
L 261.896444 256.252552 
z
" clip-path="url(#p6025d3ef4b)" style="fill: #808080; stroke: #000000; stroke-width: 0.4; stroke-linejoin: miter"/>
   </g>
   <g id="patch_126">
    <path d="M 266.660952 313.959219 
L 271.42546 313.959219 
L 271.42546 256.252552 
L 266.660952 256.252552 
z
" clip-path="url(#p6025d3ef4b)" style="fill: #808080; stroke: #000000; stroke-width: 0.4; stroke-linejoin: miter"/>
   </g>
   <g id="patch_127">
    <path d="M 271.42546 313.959219 
L 276.189968 313.959219 
L 276.189968 285.105885 
L 271.42546 285.105885 
z
" clip-path="url(#p6025d3ef4b)" style="fill: #808080; stroke: #000000; stroke-width: 0.4; stroke-linejoin: miter"/>
   </g>
   <g id="patch_128">
    <path d="M 276.189968 313.959219 
L 280.954476 313.959219 
L 280.954476 313.959219 
L 276.189968 313.959219 
z
" clip-path="url(#p6025d3ef4b)" style="fill: #808080; stroke: #000000; stroke-width: 0.4; stroke-linejoin: miter"/>
   </g>
   <g id="patch_129">
    <path d="M 280.954476 313.959219 
L 285.718984 313.959219 
L 285.718984 227.399219 
L 280.954476 227.399219 
z
" clip-path="url(#p6025d3ef4b)" style="fill: #808080; stroke: #000000; stroke-width: 0.4; stroke-linejoin: miter"/>
   </g>
   <g id="patch_130">
    <path d="M 285.718984 313.959219 
L 290.483492 313.959219 
L 290.483492 256.252552 
L 285.718984 256.252552 
z
" clip-path="url(#p6025d3ef4b)" style="fill: #808080; stroke: #000000; stroke-width: 0.4; stroke-linejoin: miter"/>
   </g>
   <g id="patch_131">
    <path d="M 290.483492 313.959219 
L 295.248 313.959219 
L 295.248 256.252552 
L 290.483492 256.252552 
z
" clip-path="url(#p6025d3ef4b)" style="fill: #808080; stroke: #000000; stroke-width: 0.4; stroke-linejoin: miter"/>
   </g>
   <g id="patch_132">
    <path d="M 295.248 313.959219 
L 300.012509 313.959219 
L 300.012509 227.399219 
L 295.248 227.399219 
z
" clip-path="url(#p6025d3ef4b)" style="fill: #808080; stroke: #000000; stroke-width: 0.4; stroke-linejoin: miter"/>
   </g>
   <g id="patch_133">
    <path d="M 300.012509 313.959219 
L 304.777017 313.959219 
L 304.777017 227.399219 
L 300.012509 227.399219 
z
" clip-path="url(#p6025d3ef4b)" style="fill: #808080; stroke: #000000; stroke-width: 0.4; stroke-linejoin: miter"/>
   </g>
   <g id="patch_134">
    <path d="M 304.777017 313.959219 
L 309.541525 313.959219 
L 309.541525 256.252552 
L 304.777017 256.252552 
z
" clip-path="url(#p6025d3ef4b)" style="fill: #808080; stroke: #000000; stroke-width: 0.4; stroke-linejoin: miter"/>
   </g>
   <g id="patch_135">
    <path d="M 309.541525 313.959219 
L 314.306033 313.959219 
L 314.306033 285.105885 
L 309.541525 285.105885 
z
" clip-path="url(#p6025d3ef4b)" style="fill: #808080; stroke: #000000; stroke-width: 0.4; stroke-linejoin: miter"/>
   </g>
   <g id="patch_136">
    <path d="M 314.306033 313.959219 
L 319.070541 313.959219 
L 319.070541 313.959219 
L 314.306033 313.959219 
z
" clip-path="url(#p6025d3ef4b)" style="fill: #808080; stroke: #000000; stroke-width: 0.4; stroke-linejoin: miter"/>
   </g>
   <g id="patch_137">
    <path d="M 319.070541 313.959219 
L 323.835049 313.959219 
L 323.835049 285.105885 
L 319.070541 285.105885 
z
" clip-path="url(#p6025d3ef4b)" style="fill: #808080; stroke: #000000; stroke-width: 0.4; stroke-linejoin: miter"/>
   </g>
   <g id="patch_138">
    <path d="M 323.835049 313.959219 
L 328.599557 313.959219 
L 328.599557 285.105885 
L 323.835049 285.105885 
z
" clip-path="url(#p6025d3ef4b)" style="fill: #808080; stroke: #000000; stroke-width: 0.4; stroke-linejoin: miter"/>
   </g>
   <g id="patch_139">
    <path d="M 328.599557 313.959219 
L 333.364065 313.959219 
L 333.364065 285.105885 
L 328.599557 285.105885 
z
" clip-path="url(#p6025d3ef4b)" style="fill: #808080; stroke: #000000; stroke-width: 0.4; stroke-linejoin: miter"/>
   </g>
   <g id="patch_140">
    <path d="M 333.364065 313.959219 
L 338.128573 313.959219 
L 338.128573 313.959219 
L 333.364065 313.959219 
z
" clip-path="url(#p6025d3ef4b)" style="fill: #808080; stroke: #000000; stroke-width: 0.4; stroke-linejoin: miter"/>
   </g>
   <g id="patch_141">
    <path d="M 338.128573 313.959219 
L 342.893081 313.959219 
L 342.893081 313.959219 
L 338.128573 313.959219 
z
" clip-path="url(#p6025d3ef4b)" style="fill: #808080; stroke: #000000; stroke-width: 0.4; stroke-linejoin: miter"/>
   </g>
   <g id="patch_142">
    <path d="M 342.893081 313.959219 
L 347.65759 313.959219 
L 347.65759 313.959219 
L 342.893081 313.959219 
z
" clip-path="url(#p6025d3ef4b)" style="fill: #808080; stroke: #000000; stroke-width: 0.4; stroke-linejoin: miter"/>
   </g>
   <g id="patch_143">
    <path d="M 347.65759 313.959219 
L 352.422098 313.959219 
L 352.422098 285.105885 
L 347.65759 285.105885 
z
" clip-path="url(#p6025d3ef4b)" style="fill: #808080; stroke: #000000; stroke-width: 0.4; stroke-linejoin: miter"/>
   </g>
   <g id="patch_144">
    <path d="M 352.422098 313.959219 
L 357.186606 313.959219 
L 357.186606 313.959219 
L 352.422098 313.959219 
z
" clip-path="url(#p6025d3ef4b)" style="fill: #808080; stroke: #000000; stroke-width: 0.4; stroke-linejoin: miter"/>
   </g>
   <g id="patch_145">
    <path d="M 357.186606 313.959219 
L 361.951114 313.959219 
L 361.951114 313.959219 
L 357.186606 313.959219 
z
" clip-path="url(#p6025d3ef4b)" style="fill: #808080; stroke: #000000; stroke-width: 0.4; stroke-linejoin: miter"/>
   </g>
   <g id="patch_146">
    <path d="M 361.951114 313.959219 
L 366.715622 313.959219 
L 366.715622 313.959219 
L 361.951114 313.959219 
z
" clip-path="url(#p6025d3ef4b)" style="fill: #808080; stroke: #000000; stroke-width: 0.4; stroke-linejoin: miter"/>
   </g>
   <g id="patch_147">
    <path d="M 366.715622 313.959219 
L 371.48013 313.959219 
L 371.48013 313.959219 
L 366.715622 313.959219 
z
" clip-path="url(#p6025d3ef4b)" style="fill: #808080; stroke: #000000; stroke-width: 0.4; stroke-linejoin: miter"/>
   </g>
   <g id="patch_148">
    <path d="M 371.48013 313.959219 
L 376.244638 313.959219 
L 376.244638 313.959219 
L 371.48013 313.959219 
z
" clip-path="url(#p6025d3ef4b)" style="fill: #808080; stroke: #000000; stroke-width: 0.4; stroke-linejoin: miter"/>
   </g>
   <g id="patch_149">
    <path d="M 376.244638 313.959219 
L 381.009146 313.959219 
L 381.009146 313.959219 
L 376.244638 313.959219 
z
" clip-path="url(#p6025d3ef4b)" style="fill: #808080; stroke: #000000; stroke-width: 0.4; stroke-linejoin: miter"/>
   </g>
   <g id="patch_150">
    <path d="M 381.009146 313.959219 
L 385.773654 313.959219 
L 385.773654 313.959219 
L 381.009146 313.959219 
z
" clip-path="url(#p6025d3ef4b)" style="fill: #808080; stroke: #000000; stroke-width: 0.4; stroke-linejoin: miter"/>
   </g>
   <g id="patch_151">
    <path d="M 385.773654 313.959219 
L 390.538162 313.959219 
L 390.538162 313.959219 
L 385.773654 313.959219 
z
" clip-path="url(#p6025d3ef4b)" style="fill: #808080; stroke: #000000; stroke-width: 0.4; stroke-linejoin: miter"/>
   </g>
   <g id="patch_152">
    <path d="M 390.538162 313.959219 
L 395.30267 313.959219 
L 395.30267 256.252552 
L 390.538162 256.252552 
z
" clip-path="url(#p6025d3ef4b)" style="fill: #808080; stroke: #000000; stroke-width: 0.4; stroke-linejoin: miter"/>
   </g>
   <g id="matplotlib.axis_3">
    <g id="ytick_7">
     <g id="line2d_11">
      <defs>
       <path id="mf9e0f560d9" d="M 0 0 
L 3.5 0 
" style="stroke: #000000; stroke-width: 0.8"/>
      </defs>
      <g>
       <use xlink:href="#mf9e0f560d9" x="412.693125" y="313.959219" style="stroke: #000000; stroke-width: 0.8"/>
      </g>
     </g>
     <g id="text_11">
      <!-- 0 -->
      <g transform="translate(419.693125 317.758437) scale(0.1 -0.1)">
       <use xlink:href="#DejaVuSans-30"/>
      </g>
     </g>
    </g>
    <g id="ytick_8">
     <g id="line2d_12">
      <g>
       <use xlink:href="#mf9e0f560d9" x="412.693125" y="256.252552" style="stroke: #000000; stroke-width: 0.8"/>
      </g>
     </g>
     <g id="text_12">
      <!-- 2 -->
      <g transform="translate(419.693125 260.051771) scale(0.1 -0.1)">
       <use xlink:href="#DejaVuSans-32"/>
      </g>
     </g>
    </g>
    <g id="ytick_9">
     <g id="line2d_13">
      <g>
       <use xlink:href="#mf9e0f560d9" x="412.693125" y="198.545885" style="stroke: #000000; stroke-width: 0.8"/>
      </g>
     </g>
     <g id="text_13">
      <!-- 4 -->
      <g transform="translate(419.693125 202.345104) scale(0.1 -0.1)">
       <use xlink:href="#DejaVuSans-34"/>
      </g>
     </g>
    </g>
    <g id="ytick_10">
     <g id="line2d_14">
      <g>
       <use xlink:href="#mf9e0f560d9" x="412.693125" y="140.839219" style="stroke: #000000; stroke-width: 0.8"/>
      </g>
     </g>
     <g id="text_14">
      <!-- 6 -->
      <g transform="translate(419.693125 144.638437) scale(0.1 -0.1)">
       <use xlink:href="#DejaVuSans-36"/>
      </g>
     </g>
    </g>
    <g id="ytick_11">
     <g id="line2d_15">
      <g>
       <use xlink:href="#mf9e0f560d9" x="412.693125" y="83.132552" style="stroke: #000000; stroke-width: 0.8"/>
      </g>
     </g>
     <g id="text_15">
      <!-- 8 -->
      <g transform="translate(419.693125 86.931771) scale(0.1 -0.1)">
       <use xlink:href="#DejaVuSans-38"/>
      </g>
     </g>
    </g>
    <g id="ytick_12">
     <g id="line2d_16">
      <g>
       <use xlink:href="#mf9e0f560d9" x="412.693125" y="25.425885" style="stroke: #000000; stroke-width: 0.8"/>
      </g>
     </g>
     <g id="text_16">
      <!-- 10 -->
      <g transform="translate(419.693125 29.225104) scale(0.1 -0.1)">
       <use xlink:href="#DejaVuSans-31"/>
       <use xlink:href="#DejaVuSans-30" x="63.623047"/>
      </g>
     </g>
    </g>
    <g id="text_17">
     <!-- Count -->
     <g transform="translate(444.016563 177.327656) rotate(-90) scale(0.1 -0.1)">
      <defs>
       <path id="DejaVuSans-43" d="M 4122 4306 
L 4122 3641 
Q 3803 3938 3442 4084 
Q 3081 4231 2675 4231 
Q 1875 4231 1450 3742 
Q 1025 3253 1025 2328 
Q 1025 1406 1450 917 
Q 1875 428 2675 428 
Q 3081 428 3442 575 
Q 3803 722 4122 1019 
L 4122 359 
Q 3791 134 3420 21 
Q 3050 -91 2638 -91 
Q 1578 -91 968 557 
Q 359 1206 359 2328 
Q 359 3453 968 4101 
Q 1578 4750 2638 4750 
Q 3056 4750 3426 4639 
Q 3797 4528 4122 4306 
z
" transform="scale(0.015625)"/>
       <path id="DejaVuSans-6f" d="M 1959 3097 
Q 1497 3097 1228 2736 
Q 959 2375 959 1747 
Q 959 1119 1226 758 
Q 1494 397 1959 397 
Q 2419 397 2687 759 
Q 2956 1122 2956 1747 
Q 2956 2369 2687 2733 
Q 2419 3097 1959 3097 
z
M 1959 3584 
Q 2709 3584 3137 3096 
Q 3566 2609 3566 1747 
Q 3566 888 3137 398 
Q 2709 -91 1959 -91 
Q 1206 -91 779 398 
Q 353 888 353 1747 
Q 353 2609 779 3096 
Q 1206 3584 1959 3584 
z
" transform="scale(0.015625)"/>
       <path id="DejaVuSans-75" d="M 544 1381 
L 544 3500 
L 1119 3500 
L 1119 1403 
Q 1119 906 1312 657 
Q 1506 409 1894 409 
Q 2359 409 2629 706 
Q 2900 1003 2900 1516 
L 2900 3500 
L 3475 3500 
L 3475 0 
L 2900 0 
L 2900 538 
Q 2691 219 2414 64 
Q 2138 -91 1772 -91 
Q 1169 -91 856 284 
Q 544 659 544 1381 
z
M 1991 3584 
L 1991 3584 
z
" transform="scale(0.015625)"/>
       <path id="DejaVuSans-6e" d="M 3513 2113 
L 3513 0 
L 2938 0 
L 2938 2094 
Q 2938 2591 2744 2837 
Q 2550 3084 2163 3084 
Q 1697 3084 1428 2787 
Q 1159 2491 1159 1978 
L 1159 0 
L 581 0 
L 581 3500 
L 1159 3500 
L 1159 2956 
Q 1366 3272 1645 3428 
Q 1925 3584 2291 3584 
Q 2894 3584 3203 3211 
Q 3513 2838 3513 2113 
z
" transform="scale(0.015625)"/>
       <path id="DejaVuSans-74" d="M 1172 4494 
L 1172 3500 
L 2356 3500 
L 2356 3053 
L 1172 3053 
L 1172 1153 
Q 1172 725 1289 603 
Q 1406 481 1766 481 
L 2356 481 
L 2356 0 
L 1766 0 
Q 1100 0 847 248 
Q 594 497 594 1153 
L 594 3053 
L 172 3053 
L 172 3500 
L 594 3500 
L 594 4494 
L 1172 4494 
z
" transform="scale(0.015625)"/>
      </defs>
      <use xlink:href="#DejaVuSans-43"/>
      <use xlink:href="#DejaVuSans-6f" x="69.824219"/>
      <use xlink:href="#DejaVuSans-75" x="131.005859"/>
      <use xlink:href="#DejaVuSans-6e" x="194.384766"/>
      <use xlink:href="#DejaVuSans-74" x="257.763672"/>
     </g>
    </g>
   </g>
   <g id="line2d_17">
    <path d="M 47.49358 305.696323 
L 52.736933 304.190099 
L 57.980286 302.395893 
L 61.475855 301.003278 
L 64.971423 299.426309 
L 68.466992 297.642108 
L 71.962561 295.629918 
L 75.45813 293.372942 
L 78.953698 290.860317 
L 82.449267 288.08908 
L 85.944836 285.065999 
L 89.440405 281.809084 
L 94.683758 276.555004 
L 101.674895 269.119232 
L 108.666033 261.684762 
L 112.161601 258.168777 
L 115.65717 254.900847 
L 119.152739 251.963969 
L 122.648308 249.434285 
L 126.143876 247.377136 
L 127.891661 246.542355 
L 129.639445 245.843568 
L 131.38723 245.284465 
L 133.135014 244.86754 
L 134.882798 244.594061 
L 136.630583 244.46405 
L 138.378367 244.476283 
L 140.126151 244.62831 
L 141.873936 244.916488 
L 143.62172 245.336035 
L 145.369505 245.881093 
L 148.865073 247.31945 
L 152.360642 249.166619 
L 155.856211 251.34681 
L 159.35178 253.777249 
L 164.595133 257.704704 
L 173.334055 264.320756 
L 178.577408 267.946851 
L 182.072977 270.109587 
L 185.568545 272.026595 
L 189.064114 273.674983 
L 192.559683 275.042631 
L 196.055252 276.126952 
L 199.55082 276.933419 
L 203.046389 277.473995 
L 206.541958 277.765594 
L 210.037527 277.82868 
L 213.533095 277.686052 
L 217.028664 277.361872 
L 222.272017 276.589446 
L 227.51537 275.548054 
L 234.506508 273.882895 
L 251.984352 269.48373 
L 257.227705 268.401591 
L 262.471058 267.552902 
L 267.714411 267.000894 
L 271.20998 266.826038 
L 274.705548 266.823055 
L 278.201117 267.004381 
L 281.696686 267.379794 
L 285.192255 267.955971 
L 288.687823 268.736057 
L 292.183392 269.719291 
L 295.678961 270.900724 
L 299.17453 272.271073 
L 302.670099 273.816726 
L 307.913452 276.424031 
L 313.156805 279.309761 
L 320.147942 283.434414 
L 334.130217 291.764481 
L 339.37357 294.639142 
L 344.616924 297.268068 
L 349.860277 299.607815 
L 355.10363 301.636325 
L 360.346983 303.352104 
L 365.590336 304.771758 
L 370.833689 305.926273 
L 376.077042 306.856506 
L 383.06818 307.827394 
L 391.807102 308.75817 
L 395.30267 309.079712 
L 395.30267 309.079712 
" clip-path="url(#p6025d3ef4b)" style="fill: none; stroke: #000080; stroke-width: 1.5; stroke-linecap: square"/>
   </g>
   <g id="patch_153">
    <path d="M 30.103125 313.959219 
L 30.103125 10.999219 
" style="fill: none; stroke: #000000; stroke-width: 0.8; stroke-linejoin: miter; stroke-linecap: square"/>
   </g>
   <g id="patch_154">
    <path d="M 412.693125 313.959219 
L 412.693125 10.999219 
" style="fill: none; stroke: #000000; stroke-width: 0.8; stroke-linejoin: miter; stroke-linecap: square"/>
   </g>
   <g id="patch_155">
    <path d="M 30.103125 313.959219 
L 412.693125 313.959219 
" style="fill: none; stroke: #000000; stroke-width: 0.8; stroke-linejoin: miter; stroke-linecap: square"/>
   </g>
   <g id="patch_156">
    <path d="M 30.103125 10.999219 
L 412.693125 10.999219 
" style="fill: none; stroke: #000000; stroke-width: 0.8; stroke-linejoin: miter; stroke-linecap: square"/>
   </g>
  </g>
 </g>
 <defs>
  <clipPath id="p6025d3ef4b">
   <rect x="30.103125" y="10.999219" width="382.59" height="302.96"/>
  </clipPath>
 </defs>
</svg>
